<svg width="12" height="12" viewBox="0 0 12 12" fill="none" xmlns="http://www.w3.org/2000/svg">
<path d="M0.3125 6C0.3125 9.14098 2.85902 11.6875 6 11.6875C9.14098 11.6875 11.6875 9.14098 11.6875 6C11.6875 2.85902 9.14098 0.3125 6 0.3125C2.85902 0.3125 0.3125 2.85902 0.3125 6ZM8.31574 5.03449C8.35596 4.99216 8.40425 4.9583 8.45777 4.93492C8.51128 4.91154 8.56893 4.89911 8.62732 4.89837C8.68571 4.89762 8.74366 4.90857 8.79775 4.93057C8.85185 4.95257 8.90099 4.98518 8.94228 5.02647C8.98357 5.06776 9.01618 5.1169 9.03818 5.171C9.06018 5.22509 9.07113 5.28304 9.07038 5.34143C9.06964 5.39982 9.05721 5.45747 9.03383 5.51098C9.01045 5.5645 8.97659 5.61279 8.93426 5.65301L6.30926 8.27801C6.22722 8.35999 6.11598 8.40605 6 8.40605C5.88402 8.40605 5.77278 8.35999 5.69074 8.27801L3.06574 5.65301C2.98716 5.57029 2.944 5.46015 2.94546 5.34607C2.94692 5.23199 2.99289 5.12299 3.07356 5.04231C3.15424 4.96164 3.26324 4.91567 3.37732 4.91421C3.4914 4.91274 3.60154 4.95591 3.68426 5.03449L6 7.34996L8.31574 5.03449Z" fill="#FF8682"/>
</svg>
