<svg width="24" height="24" viewBox="0 0 24 24" fill="none" xmlns="http://www.w3.org/2000/svg">
<g clip-path="url(#clip0_29_584)">
<path d="M12 4.5C13.0355 4.5 13.875 3.66053 13.875 2.625C13.875 1.58947 13.0355 0.75 12 0.75C10.9645 0.75 10.125 1.58947 10.125 2.625C10.125 3.66053 10.9645 4.5 12 4.5Z" stroke="black" stroke-width="1.5" stroke-linejoin="round"/>
<path d="M9.57355 12.8644C9.70949 12.0178 9.77042 11.1994 9.55011 10.6336C9.36261 10.147 8.9548 9.87468 8.46261 9.68906L4.12527 8.28562C3.56277 8.09812 3.0373 7.78406 3.00027 7.16343C2.95339 6.36656 3.65652 5.85093 4.35964 6.03843C4.35964 6.03843 8.48464 7.49812 12.0003 7.49812C15.5159 7.49812 19.594 6.045 19.594 6.045C20.4378 5.81062 21.0003 6.46687 21.0003 7.16015C21.0003 7.82625 20.4846 8.06062 19.8753 8.28234L15.7503 9.77812C15.3753 9.91875 14.7659 10.2 14.5315 10.6303C14.2503 11.1342 14.2971 12.0145 14.4331 12.8611L14.7096 14.25L16.4632 21.9328C16.5945 22.5492 16.1679 23.1253 15.5539 23.2331C14.9398 23.3409 14.4378 22.9219 14.2559 22.3256L12.4953 16.8914C12.4106 16.6308 12.3356 16.3672 12.2703 16.1006L12.0003 15L11.7518 16.0148C11.6731 16.3383 11.5825 16.6583 11.48 16.9748L9.75027 22.3209C9.56277 22.9233 9.07058 23.3405 8.45652 23.2331C7.84245 23.1258 7.40652 22.5023 7.54433 21.9328L9.29699 14.2533L9.57355 12.8644Z" stroke="black" stroke-width="1.5" stroke-linejoin="round"/>
</g>
<defs>
<clipPath id="clip0_29_584">
<rect width="24" height="24" fill="white"/>
</clipPath>
</defs>
</svg>
