<svg width="24" height="24" viewBox="0 0 24 24" fill="none" xmlns="http://www.w3.org/2000/svg">
<path d="M19.5029 12.75C19.5029 11.2666 19.0631 9.81659 18.239 8.58322C17.4148 7.34985 16.2435 6.38856 14.8731 5.8209C13.5026 5.25325 11.9946 5.10472 10.5398 5.39411C9.0849 5.6835 7.74853 6.39781 6.69964 7.4467C5.65074 8.49559 4.93644 9.83197 4.64705 11.2868C4.35766 12.7417 4.50618 14.2497 5.07384 15.6201C5.6415 16.9906 6.60279 18.1619 7.83616 18.986C9.06953 19.8101 10.5196 20.25 12.0029 20.25C13.9921 20.25 15.8997 19.4598 17.3062 18.0533C18.7128 16.6468 19.5029 14.7391 19.5029 12.75ZM6.66153 4.27547C6.26796 3.93868 5.76765 3.75248 5.24966 3.75L5.11888 3.75375C3.92122 3.82594 2.99966 4.875 3.00294 6.14062C3.00294 6.75984 3.22138 7.04859 3.51294 7.41703C3.53105 7.44071 3.55392 7.46032 3.58008 7.47461C3.60624 7.4889 3.63511 7.49755 3.66481 7.5H3.70606C3.72929 7.49958 3.75211 7.49383 3.77276 7.48318C3.7934 7.47253 3.81132 7.45728 3.82513 7.43859L6.67372 4.64062C6.69804 4.61603 6.71704 4.58669 6.72954 4.55443C6.74204 4.52217 6.74777 4.48769 6.74638 4.45312C6.7452 4.41927 6.73705 4.38603 6.72246 4.35546C6.70786 4.3249 6.68712 4.29766 6.66153 4.27547V4.27547ZM17.3378 4.27547C17.7314 3.93868 18.2317 3.75248 18.7497 3.75L18.8804 3.75375C20.0781 3.82594 20.9997 4.875 20.9964 6.14062C20.9964 6.75984 20.7779 7.04859 20.4864 7.41703C20.4682 7.44062 20.4453 7.46015 20.4192 7.47435C20.393 7.48856 20.3642 7.49714 20.3345 7.49953H20.2933C20.27 7.49912 20.2472 7.49336 20.2266 7.48271C20.2059 7.47206 20.188 7.45681 20.1742 7.43812L17.3256 4.64062C17.3013 4.61603 17.2823 4.58669 17.2698 4.55443C17.2573 4.52217 17.2515 4.48769 17.2529 4.45312C17.2541 4.41927 17.2623 4.38603 17.2769 4.35546C17.2915 4.3249 17.3122 4.29766 17.3378 4.27547V4.27547Z" stroke="black" stroke-width="1.5" stroke-miterlimit="10"/>
<path d="M12.0029 7.5V12.75H8.25293M19.5029 20.25L17.6279 18.375M4.50293 20.25L6.37793 18.375" stroke="black" stroke-width="1.5" stroke-linecap="round" stroke-linejoin="round"/>
</svg>
