<svg width="24" height="24" viewBox="0 0 24 24" fill="none" xmlns="http://www.w3.org/2000/svg">
<path d="M7.19919 5.17781C7.29773 5.0803 7.375 4.96342 7.42613 4.83455C7.47725 4.70568 7.50112 4.56762 7.49623 4.42907C7.49135 4.29052 7.4578 4.15448 7.39772 4.02954C7.33764 3.90459 7.25233 3.79345 7.14715 3.70312C6.61789 3.25143 5.94547 3.00226 5.24965 3L5.09637 3.00422H5.07387C3.48715 3.10078 2.24965 4.47891 2.25294 6.14062C2.25294 7.03125 2.62794 7.50281 2.92419 7.88016C3.00732 7.98565 3.11153 8.07265 3.23017 8.13561C3.34882 8.19856 3.47929 8.23608 3.61325 8.24578C3.62544 8.24578 3.64606 8.24813 3.707 8.24813C3.8275 8.24795 3.94672 8.2234 4.05748 8.17595C4.16825 8.1285 4.26827 8.05914 4.35153 7.97203L7.19919 5.17781ZM18.9273 3.00516L18.774 3.00047H18.7497C18.0532 3.00228 17.38 3.25148 16.8503 3.70359C16.7453 3.79392 16.6601 3.905 16.6001 4.02986C16.5401 4.15472 16.5066 4.29065 16.5017 4.42908C16.4968 4.56752 16.5206 4.70546 16.5717 4.83424C16.6227 4.96302 16.6999 5.07984 16.7982 5.17734L19.6468 7.97344C19.7303 8.06086 19.8306 8.13044 19.9417 8.17798C20.0528 8.22551 20.1724 8.25002 20.2932 8.25C20.3532 8.25 20.3739 8.25 20.387 8.24766C20.5209 8.2379 20.6513 8.20034 20.7698 8.13739C20.8884 8.07444 20.9925 7.98747 21.0756 7.88203C21.3737 7.50469 21.745 7.03453 21.7468 6.1425C21.7497 4.47891 20.5122 3.10078 18.9273 3.00516Z" fill="black"/>
<path d="M12.0036 4.5C7.45673 4.5 3.75361 8.20078 3.75361 12.75C3.752 14.6788 4.42921 16.5467 5.66658 18.0262L3.97345 19.7198C3.90215 19.7891 3.84533 19.8719 3.80631 19.9633C3.76728 20.0547 3.74682 20.153 3.74611 20.2524C3.74541 20.3518 3.76447 20.4504 3.8022 20.5424C3.83993 20.6344 3.89557 20.7179 3.96588 20.7882C4.03619 20.8585 4.11978 20.9141 4.21177 20.9518C4.30376 20.9895 4.40233 21.0085 4.50174 21.0077C4.60115 21.007 4.69942 20.9865 4.79084 20.9474C4.88225 20.9083 4.96499 20.8515 5.03423 20.7802L6.72736 19.087C8.20775 20.323 10.0751 21 12.0036 21C13.9321 21 15.7995 20.323 17.2799 19.087L18.9735 20.7802C19.0427 20.8515 19.1254 20.9083 19.2168 20.9474C19.3083 20.9865 19.4065 21.007 19.5059 21.0077C19.6054 21.0085 19.7039 20.9895 19.7959 20.9518C19.8879 20.9141 19.9715 20.8585 20.0418 20.7882C20.1121 20.7179 20.1678 20.6344 20.2055 20.5424C20.2432 20.4504 20.2623 20.3518 20.2616 20.2524C20.2609 20.153 20.2404 20.0547 20.2014 19.9633C20.1623 19.8719 20.1055 19.7891 20.0342 19.7198L18.3406 18.0262C19.5782 16.5468 20.2555 14.6788 20.2536 12.75C20.2536 8.20312 16.5528 4.5 12.0036 4.5ZM12.7536 12.75C12.7536 12.9489 12.6746 13.1397 12.5339 13.2803C12.3933 13.421 12.2025 13.5 12.0036 13.5H8.25361C8.0547 13.5 7.86393 13.421 7.72328 13.2803C7.58263 13.1397 7.50361 12.9489 7.50361 12.75C7.50361 12.5511 7.58263 12.3603 7.72328 12.2197C7.86393 12.079 8.0547 12 8.25361 12H11.2536V7.5C11.2536 7.30109 11.3326 7.11032 11.4733 6.96967C11.6139 6.82902 11.8047 6.75 12.0036 6.75C12.2025 6.75 12.3933 6.82902 12.5339 6.96967C12.6746 7.11032 12.7536 7.30109 12.7536 7.5V12.75Z" fill="black"/>
</svg>
