<svg width="24" height="24" viewBox="0 0 24 24" fill="none" xmlns="http://www.w3.org/2000/svg">
<path d="M21 12C21 7.03125 16.9688 3 12 3C7.03125 3 3 7.03125 3 12C3 16.9688 7.03125 21 12 21C16.9688 21 21 16.9688 21 12Z" stroke="black" stroke-width="1.5" stroke-miterlimit="10"/>
<path d="M11.7307 7.78358L11.9998 13.5L12.2684 7.78358C12.2701 7.74704 12.2642 7.71054 12.2513 7.67632C12.2384 7.6421 12.2186 7.61087 12.1932 7.58454C12.1678 7.55822 12.1373 7.53735 12.1036 7.52322C12.0698 7.50908 12.0336 7.50198 11.997 7.50233V7.50233C11.9609 7.50267 11.9251 7.51029 11.892 7.52474C11.8589 7.53918 11.829 7.56016 11.8041 7.58641C11.7793 7.61266 11.76 7.64365 11.7474 7.67752C11.7348 7.7114 11.7291 7.74747 11.7307 7.78358V7.78358Z" stroke="black" stroke-width="1.5" stroke-linecap="round" stroke-linejoin="round"/>
<path d="M12 17.2457C11.8146 17.2457 11.6333 17.1907 11.4792 17.0877C11.325 16.9847 11.2048 16.8383 11.1339 16.667C11.0629 16.4957 11.0443 16.3072 11.0805 16.1253C11.1167 15.9435 11.206 15.7764 11.3371 15.6453C11.4682 15.5142 11.6352 15.4249 11.8171 15.3887C11.999 15.3526 12.1875 15.3711 12.3588 15.4421C12.5301 15.513 12.6765 15.6332 12.7795 15.7874C12.8825 15.9416 12.9375 16.1228 12.9375 16.3082C12.9375 16.5569 12.8387 16.7953 12.6629 16.9711C12.4871 17.147 12.2486 17.2457 12 17.2457Z" fill="black"/>
</svg>
