<svg width="24" height="24" viewBox="0 0 24 24" fill="none" xmlns="http://www.w3.org/2000/svg">
<path d="M12 21.75C17.3845 21.75 21.75 17.3845 21.75 12C21.75 6.61547 17.3845 2.25 12 2.25C6.61547 2.25 2.25 6.61547 2.25 12C2.25 17.3845 6.61547 21.75 12 21.75ZM7.7175 11.782C7.78687 11.7121 7.86934 11.6565 7.96019 11.6184C8.05105 11.5804 8.14851 11.5606 8.24702 11.5602C8.34552 11.5598 8.44314 11.5788 8.5343 11.6162C8.62545 11.6535 8.70836 11.7084 8.77828 11.7778L11.25 14.2303V7.96875C11.25 7.76984 11.329 7.57907 11.4697 7.43842C11.6103 7.29777 11.8011 7.21875 12 7.21875C12.1989 7.21875 12.3897 7.29777 12.5303 7.43842C12.671 7.57907 12.75 7.76984 12.75 7.96875V14.2303L15.2217 11.7778C15.3631 11.6377 15.5543 11.5595 15.7533 11.5604C15.9523 11.5612 16.1429 11.6411 16.283 11.7825C16.4231 11.9239 16.5013 12.1151 16.5004 12.3141C16.4995 12.5131 16.4196 12.7036 16.2783 12.8438L12.5283 16.5652C12.3878 16.7046 12.1979 16.7828 12 16.7828C11.8021 16.7828 11.6122 16.7046 11.4717 16.5652L7.72172 12.8438C7.65164 12.7744 7.59593 12.6918 7.55778 12.6009C7.51964 12.51 7.4998 12.4124 7.49941 12.3138C7.49902 12.2151 7.51808 12.1174 7.5555 12.0262C7.59292 11.9349 7.64797 11.852 7.7175 11.782Z" fill="black"/>
</svg>
