<svg width="24" height="24" viewBox="0 0 24 24" fill="none" xmlns="http://www.w3.org/2000/svg">
<path d="M2.25 12C2.25 17.3845 6.61547 21.75 12 21.75C17.3845 21.75 21.75 17.3845 21.75 12C21.75 6.61547 17.3845 2.25 12 2.25C6.61547 2.25 2.25 6.61547 2.25 12ZM15.9698 10.3448C16.0388 10.2723 16.1216 10.2142 16.2133 10.1742C16.305 10.1341 16.4039 10.1128 16.504 10.1115C16.6041 10.1102 16.7034 10.129 16.7961 10.1667C16.8889 10.2044 16.9731 10.2603 17.0439 10.3311C17.1147 10.4019 17.1706 10.4861 17.2083 10.5789C17.246 10.6716 17.2648 10.7709 17.2635 10.871C17.2622 10.9711 17.2409 11.07 17.2008 11.1617C17.1608 11.2534 17.1027 11.3362 17.0302 11.4052L12.5302 15.9052C12.3895 16.0457 12.1988 16.1247 12 16.1247C11.8012 16.1247 11.6105 16.0457 11.4698 15.9052L6.96984 11.4052C6.83513 11.2634 6.76113 11.0745 6.76364 10.879C6.76614 10.6834 6.84495 10.4965 6.98325 10.3582C7.12155 10.2199 7.3084 10.1411 7.50398 10.1386C7.69955 10.1361 7.88836 10.2101 8.03016 10.3448L12 14.3142L15.9698 10.3448Z" fill="black"/>
</svg>
