<svg width="24" height="24" viewBox="0 0 24 24" fill="none" xmlns="http://www.w3.org/2000/svg">
<path d="M2.25 12C2.25 6.61547 6.61547 2.25 12 2.25C17.3845 2.25 21.75 6.61547 21.75 12C21.75 17.3845 17.3845 21.75 12 21.75C6.61547 21.75 2.25 17.3845 2.25 12ZM15.9698 13.6552C16.0388 13.7277 16.1216 13.7858 16.2133 13.8258C16.305 13.8659 16.4039 13.8872 16.504 13.8885C16.6041 13.8898 16.7034 13.871 16.7961 13.8333C16.8889 13.7956 16.9731 13.7397 17.0439 13.6689C17.1147 13.5981 17.1706 13.5139 17.2083 13.4211C17.246 13.3284 17.2648 13.2291 17.2635 13.129C17.2622 13.0289 17.2409 12.93 17.2008 12.8383C17.1608 12.7466 17.1027 12.6638 17.0302 12.5948L12.5302 8.09484C12.3895 7.9543 12.1988 7.87535 12 7.87535C11.8012 7.87535 11.6105 7.9543 11.4698 8.09484L6.96984 12.5948C6.83513 12.7366 6.76113 12.9255 6.76364 13.121C6.76614 13.3166 6.84495 13.5035 6.98325 13.6418C7.12155 13.7801 7.3084 13.8589 7.50398 13.8614C7.69955 13.8639 7.88836 13.7899 8.03016 13.6552L12 9.68578L15.9698 13.6552Z" fill="black"/>
</svg>
