<svg width="24" height="24" viewBox="0 0 24 24" fill="none" xmlns="http://www.w3.org/2000/svg">
<path d="M12.5113 15.3629V13.6135C9.83612 13.6135 8.54987 14.2449 7.42159 15.4266C7.16847 15.6915 6.71847 15.4885 6.75175 15.1252C7.00722 12.2448 8.35206 9.63664 12.5113 9.63664V7.88727C12.512 7.81158 12.5347 7.73773 12.5767 7.67474C12.6187 7.61175 12.6781 7.56233 12.7476 7.53251C12.8172 7.50269 12.894 7.49377 12.9685 7.50682C13.0431 7.51987 13.1122 7.55434 13.1675 7.60602L17.1289 11.3438C17.1671 11.3798 17.1975 11.4231 17.2183 11.4713C17.2391 11.5194 17.2498 11.5713 17.2498 11.6237C17.2498 11.6761 17.2391 11.728 17.2183 11.7761C17.1975 11.8242 17.1671 11.8676 17.1289 11.9035L13.1717 15.6427C13.1167 15.6957 13.0473 15.7314 12.9722 15.7453C12.897 15.7592 12.8195 15.7507 12.7491 15.7209C12.6788 15.6911 12.6187 15.6412 12.5764 15.5776C12.5342 15.514 12.5115 15.4393 12.5113 15.3629Z" fill="black"/>
<path d="M3 12C3 16.9688 7.03125 21 12 21C16.9688 21 21 16.9688 21 12C21 7.03125 16.9688 3 12 3C7.03125 3 3 7.03125 3 12Z" stroke="black" stroke-width="1.5" stroke-miterlimit="10"/>
</svg>
