<svg width="24" height="24" viewBox="0 0 24 24" fill="none" xmlns="http://www.w3.org/2000/svg">
<path d="M11.4885 15.3629V13.6135C14.1637 13.6135 15.4499 14.2449 16.5782 15.4266C16.8313 15.6915 17.2813 15.4885 17.2481 15.1252C16.9926 12.2448 15.6478 9.63664 11.4885 9.63664V7.88726C11.4882 7.81111 11.4657 7.73671 11.4236 7.67325C11.3815 7.60978 11.3217 7.56002 11.2517 7.53012C11.1817 7.50021 11.1044 7.49146 11.0295 7.50495C10.9545 7.51843 10.8852 7.55357 10.8299 7.60601L6.87088 11.3438C6.83271 11.3798 6.8023 11.4231 6.78151 11.4713C6.76072 11.5194 6.75 11.5712 6.75 11.6237C6.75 11.6761 6.76072 11.728 6.78151 11.7761C6.8023 11.8242 6.83271 11.8676 6.87088 11.9035L10.8281 15.6427C10.8831 15.6957 10.9525 15.7314 11.0276 15.7453C11.1028 15.7592 11.1803 15.7507 11.2507 15.7209C11.321 15.691 11.3811 15.6412 11.4234 15.5776C11.4657 15.514 11.4883 15.4393 11.4885 15.3629Z" fill="black"/>
<path d="M12 3C7.03125 3 3 7.03125 3 12C3 16.9688 7.03125 21 12 21C16.9688 21 21 16.9688 21 12C21 7.03125 16.9688 3 12 3Z" stroke="black" stroke-width="1.5" stroke-miterlimit="10"/>
</svg>
