<svg width="24" height="24" viewBox="0 0 24 24" fill="none" xmlns="http://www.w3.org/2000/svg">
<path d="M21.3117 7.94062C21.1727 7.8006 21.0073 7.68956 20.825 7.61392C20.6428 7.53829 20.4473 7.49957 20.25 7.5H17.25V6.75C17.25 5.35761 16.6969 4.02226 15.7123 3.03769C14.7277 2.05312 13.3924 1.5 12 1.5C10.6076 1.5 9.27226 2.05312 8.28769 3.03769C7.30312 4.02226 6.75 5.35761 6.75 6.75V7.5H3.75C3.35218 7.5 2.97064 7.65804 2.68934 7.93934C2.40804 8.22064 2.25 8.60218 2.25 9V19.125C2.25 20.9531 3.79688 22.5 5.625 22.5H18.375C19.2593 22.5003 20.1086 22.1545 20.7413 21.5367C21.0596 21.233 21.3132 20.8679 21.4865 20.4634C21.6599 20.059 21.7495 19.6236 21.75 19.1836V9C21.7506 8.80321 21.7122 8.60826 21.637 8.42642C21.5617 8.24458 21.4512 8.07946 21.3117 7.94062V7.94062ZM15.5855 12.8438L11.3855 18.0938C11.3165 18.1799 11.2294 18.2498 11.1303 18.2984C11.0312 18.3471 10.9226 18.3732 10.8122 18.375H10.8C10.6917 18.375 10.5846 18.3515 10.4862 18.3062C10.3878 18.2609 10.3004 18.1948 10.23 18.1125L8.43 16.0087C8.36598 15.9339 8.31733 15.8472 8.28683 15.7535C8.25633 15.6599 8.24457 15.5611 8.25223 15.4629C8.2599 15.3647 8.28682 15.269 8.33148 15.1812C8.37614 15.0934 8.43765 15.0153 8.5125 14.9512C8.58735 14.8872 8.67408 14.8386 8.76774 14.8081C8.86139 14.7776 8.96014 14.7658 9.05834 14.7735C9.15653 14.7811 9.25226 14.8081 9.34005 14.8527C9.42784 14.8974 9.50598 14.9589 9.57 15.0338L10.7812 16.4489L14.4145 11.9062C14.5389 11.7508 14.7198 11.6512 14.9176 11.6292C15.1154 11.6072 15.3138 11.6647 15.4692 11.7891C15.6246 11.9134 15.7243 12.0943 15.7462 12.2921C15.7682 12.4899 15.7107 12.6883 15.5864 12.8438H15.5855ZM15.75 7.5H8.25V6.75C8.25 5.75544 8.64509 4.80161 9.34835 4.09835C10.0516 3.39509 11.0054 3 12 3C12.9946 3 13.9484 3.39509 14.6517 4.09835C15.3549 4.80161 15.75 5.75544 15.75 6.75V7.5Z" fill="black"/>
</svg>
