<svg width="24" height="24" viewBox="0 0 24 24" fill="none" xmlns="http://www.w3.org/2000/svg">
<path d="M21.3117 7.94062C21.1727 7.8006 21.0073 7.68956 20.825 7.61392C20.6428 7.53829 20.4473 7.49957 20.25 7.5H17.25V6.75C17.25 5.35761 16.6969 4.02226 15.7123 3.03769C14.7277 2.05312 13.3924 1.5 12 1.5C10.6076 1.5 9.27226 2.05312 8.28769 3.03769C7.30312 4.02226 6.75 5.35761 6.75 6.75V7.5H3.75C3.35218 7.5 2.97064 7.65804 2.68934 7.93934C2.40804 8.22064 2.25 8.60218 2.25 9V19.125C2.25 20.9531 3.79688 22.5 5.625 22.5H18.375C19.2593 22.5003 20.1086 22.1545 20.7413 21.5367C21.0596 21.233 21.3132 20.8679 21.4865 20.4634C21.6599 20.059 21.7495 19.6236 21.75 19.1836V9C21.7506 8.80321 21.7122 8.60826 21.637 8.42642C21.5617 8.24458 21.4512 8.07946 21.3117 7.94062ZM8.25 6.75C8.25 5.75544 8.64509 4.80161 9.34835 4.09835C10.0516 3.39509 11.0054 3 12 3C12.9946 3 13.9484 3.39509 14.6517 4.09835C15.3549 4.80161 15.75 5.75544 15.75 6.75V7.5H8.25V6.75Z" fill="black"/>
</svg>
