<svg width="24" height="24" viewBox="0 0 24 24" fill="none" xmlns="http://www.w3.org/2000/svg">
<path d="M21 12C21.5026 12 22.0044 11.9579 22.5 11.8744C22.4674 9.13305 21.3639 6.51319 19.4254 4.57464C17.4868 2.63609 14.867 1.53261 12.1256 1.5C12.0421 1.99563 12 2.49737 12 3C12 7.96266 16.0373 12 21 12ZM11.8758 22.5C11.9198 22.2342 11.9531 21.9656 11.9738 21.6947C11.9911 21.4659 12 21.2325 12 21.0014C12 16.0387 7.96266 12.0014 3 12.0014C2.49737 12.0014 1.99563 12.0435 1.5 12.127C1.53298 14.8684 2.63681 17.4881 4.57563 19.4264C6.51444 21.3646 9.13445 22.4678 11.8758 22.5Z" fill="black"/>
<path d="M13.5755 10.4245C12.5974 9.45181 11.8219 8.29475 11.294 7.02033C10.7661 5.7459 10.4962 4.37943 10.5 3C10.5 2.52969 10.5313 2.0599 10.5938 1.59375C8.31541 1.90228 6.20122 2.94976 4.57549 4.57549C2.94976 6.20122 1.90228 8.31541 1.59375 10.5938C2.0599 10.5313 2.52969 10.5 3 10.5C4.37943 10.4962 5.7459 10.7661 7.02033 11.294C8.29475 11.8219 9.45181 12.5974 10.4245 13.5755C11.4026 14.5482 12.1781 15.7052 12.706 16.9797C13.2339 18.2541 13.5038 19.6206 13.5 21C13.5 21.2691 13.4897 21.5405 13.4695 21.8072C13.4539 22.0078 13.4327 22.2077 13.4058 22.4067C15.6842 22.0981 17.7985 21.0506 19.4243 19.4248C21.0501 17.799 22.0976 15.6847 22.4062 13.4062C21.9401 13.4687 21.4703 13.5 21 13.5C19.6206 13.5038 18.2541 13.2339 16.9797 12.706C15.7052 12.1781 14.5482 11.4026 13.5755 10.4245Z" fill="black"/>
</svg>
