<svg width="24" height="24" viewBox="0 0 24 24" fill="none" xmlns="http://www.w3.org/2000/svg">
<path d="M12 21.75C17.3848 21.75 21.75 17.3848 21.75 12C21.75 6.61522 17.3848 2.25 12 2.25C6.61522 2.25 2.25 6.61522 2.25 12C2.25 17.3848 6.61522 21.75 12 21.75Z" stroke="black" stroke-width="1.5" stroke-linecap="round" stroke-linejoin="round"/>
<path d="M21.6293 12.7238C21.3907 12.7411 21.2431 12.75 20.9998 12.75C15.6148 12.75 11.2498 8.385 11.2498 3C11.2498 2.74828 11.2592 2.59266 11.2779 2.34375M2.32715 11.2762C2.32715 11.2762 2.75793 11.25 2.9998 11.25C8.3848 11.25 12.7498 15.615 12.7498 21C12.7498 21.2522 12.7212 21.6562 12.7212 21.6562" stroke="black" stroke-width="1.5" stroke-linecap="round" stroke-linejoin="round"/>
</svg>
