<svg width="24" height="24" viewBox="0 0 24 24" fill="none" xmlns="http://www.w3.org/2000/svg">
<path d="M6.5625 19.75H4.6875C4.23995 19.75 3.81073 19.5722 3.49426 19.2557C3.17779 18.9393 3 18.5101 3 18.0625V10.9375C3 10.4899 3.17779 10.0607 3.49426 9.74426C3.81073 9.42779 4.23995 9.25 4.6875 9.25H6.5625C7.01005 9.25 7.43927 9.42779 7.75574 9.74426C8.07221 10.0607 8.25 10.4899 8.25 10.9375V18.0625C8.25 18.5101 8.07221 18.9393 7.75574 19.2557C7.43927 19.5722 7.01005 19.75 6.5625 19.75ZM13.3125 19.75H11.4375C10.9899 19.75 10.5607 19.5722 10.2443 19.2557C9.92779 18.9393 9.75 18.5101 9.75 18.0625V8.6875C9.75 8.23995 9.92779 7.81072 10.2443 7.49426C10.5607 7.17779 10.9899 7 11.4375 7H13.3125C13.7601 7 14.1893 7.17779 14.5057 7.49426C14.8222 7.81072 15 8.23995 15 8.6875V18.0625C15 18.5101 14.8222 18.9393 14.5057 19.2557C14.1893 19.5722 13.7601 19.75 13.3125 19.75ZM20.0456 19.75H18.1706C17.7231 19.75 17.2938 19.5722 16.9774 19.2557C16.6609 18.9393 16.4831 18.5101 16.4831 18.0625V5.6875C16.4831 5.23995 16.6609 4.81073 16.9774 4.49426C17.2938 4.17779 17.7231 4 18.1706 4H20.0456C20.4932 4 20.9224 4.17779 21.2389 4.49426C21.5553 4.81073 21.7331 5.23995 21.7331 5.6875V18.0625C21.7331 18.5101 21.5553 18.9393 21.2389 19.2557C20.9224 19.5722 20.4932 19.75 20.0456 19.75Z" fill="black"/>
</svg>
