<svg width="24" height="24" viewBox="0 0 24 24" fill="none" xmlns="http://www.w3.org/2000/svg">
<path d="M5.8125 10.25H3.9375C3.41973 10.25 3 10.6697 3 11.1875V18.3125C3 18.8303 3.41973 19.25 3.9375 19.25H5.8125C6.33027 19.25 6.75 18.8303 6.75 18.3125V11.1875C6.75 10.6697 6.33027 10.25 5.8125 10.25Z" stroke="black" stroke-width="1.5" stroke-linecap="round" stroke-linejoin="round"/>
<path d="M12.5625 8H10.6875C10.1697 8 9.75 8.41973 9.75 8.9375V18.3125C9.75 18.8303 10.1697 19.25 10.6875 19.25H12.5625C13.0803 19.25 13.5 18.8303 13.5 18.3125V8.9375C13.5 8.41973 13.0803 8 12.5625 8Z" stroke="black" stroke-width="1.5" stroke-linecap="round" stroke-linejoin="round"/>
<path d="M19.2949 5H17.4199C16.9022 5 16.4824 5.41973 16.4824 5.9375V18.3125C16.4824 18.8303 16.9022 19.25 17.4199 19.25H19.2949C19.8127 19.25 20.2324 18.8303 20.2324 18.3125V5.9375C20.2324 5.41973 19.8127 5 19.2949 5Z" stroke="black" stroke-width="1.5" stroke-linecap="round" stroke-linejoin="round"/>
</svg>
