<svg width="24" height="24" viewBox="0 0 24 24" fill="none" xmlns="http://www.w3.org/2000/svg">
<path d="M16.5 9.375V20.625C16.4985 21.1218 16.3005 21.5979 15.9492 21.9492C15.5979 22.3005 15.1218 22.4985 14.625 22.5H6.375C5.87818 22.4985 5.40212 22.3005 5.05081 21.9492C4.6995 21.5979 4.50148 21.1218 4.5 20.625V10.5" stroke="black" stroke-width="1.5" stroke-linecap="round" stroke-linejoin="round"/>
<path d="M16.5 10.5H18.375C19.0706 10.502 19.7371 10.7792 20.229 11.271C20.7208 11.7629 20.998 12.4294 21 13.125V16.875C20.998 17.5706 20.7208 18.2371 20.229 18.729C19.7371 19.2208 19.0706 19.498 18.375 19.5H16.5" stroke="black" stroke-width="1.5" stroke-miterlimit="10" stroke-linecap="round"/>
<path d="M10.5 12V19.5M13.5 12V19.5M7.5 12V19.5M15 5.25C15.5967 5.25 16.169 5.48705 16.591 5.90901C17.0129 6.33097 17.25 6.90326 17.25 7.5C17.25 8.09674 17.0129 8.66903 16.591 9.09099C16.169 9.51295 15.5967 9.75 15 9.75C14.3789 9.75 13.6261 9.40734 13.2188 9H7.5C7.125 10.0312 6.23438 10.5 5.25 10.5C4.65326 10.5 4.08097 10.2629 3.65901 9.84099C3.23705 9.41903 3 8.84674 3 8.25C3 7.65326 3.23705 7.08097 3.65901 6.65901C4.08097 6.23705 4.65326 6 5.25 6C5.68876 6.01844 6.11249 6.16512 6.46875 6.42188" stroke="black" stroke-width="1.5" stroke-linecap="round" stroke-linejoin="round"/>
<path d="M4.30631 6.20766C4.12246 6.0255 3.97831 5.80725 3.88293 5.56665C3.78756 5.32606 3.74303 5.06832 3.75214 4.80967C3.76125 4.55101 3.82382 4.29705 3.93589 4.06376C4.04797 3.83048 4.20712 3.62292 4.40334 3.45415C4.59956 3.28539 4.8286 3.15908 5.07603 3.08316C5.32346 3.00725 5.58392 2.98339 5.84103 3.01307C6.09813 3.04276 6.3463 3.12535 6.56993 3.25564C6.79355 3.38594 6.98777 3.56112 7.14037 3.77016C7.14037 3.77016 7.50037 4.26562 7.50037 4.5M6.83616 3.03328C7.65131 2.10422 8.79272 1.5 10.1254 1.5C12.5807 1.5 14.5316 3.50813 14.5316 5.96297C14.5318 6.24278 14.5056 6.52198 14.4533 6.79688" stroke="black" stroke-width="1.5" stroke-miterlimit="10" stroke-linecap="round"/>
</svg>
