<svg width="24" height="24" viewBox="0 0 24 24" fill="none" xmlns="http://www.w3.org/2000/svg">
<path d="M18.3748 9.75003H17.2498V9.48097C17.628 9.05329 17.8761 8.52649 17.965 7.96255C18.0539 7.39862 17.9799 6.82103 17.7517 6.29775C17.5234 5.77446 17.1504 5.32727 16.6766 5.00879C16.2028 4.69031 15.6479 4.5138 15.0772 4.50003C14.8379 3.66473 14.3933 2.90264 13.7839 2.28331C13.3076 1.79587 12.7384 1.409 12.1098 1.14562C11.4813 0.882242 10.8063 0.747721 10.1248 0.750029C8.72279 0.750029 7.41638 1.32565 6.4217 2.37565C5.9335 2.2201 5.41045 2.21083 4.91705 2.34897C4.42364 2.48712 3.98146 2.76664 3.64501 3.15308C3.30856 3.53951 3.09256 4.01597 3.02364 4.52369C2.95472 5.03141 3.0359 5.5482 3.25716 6.01034C2.90209 6.32549 2.627 6.72052 2.45457 7.16286C2.28214 7.6052 2.21731 8.08219 2.26543 8.55451C2.31354 9.02683 2.47322 9.48095 2.73131 9.87943C2.98939 10.2779 3.33849 10.6094 3.74982 10.8464V20.625C3.75056 21.321 4.02737 21.9882 4.51949 22.4804C5.01161 22.9725 5.67886 23.2493 6.37482 23.25H14.6248C15.3208 23.2493 15.988 22.9725 16.4802 22.4804C16.9723 21.9882 17.2491 21.321 17.2498 20.625V20.25H18.3748C19.2696 20.249 20.1275 19.8931 20.7602 19.2604C21.3929 18.6277 21.7488 17.7698 21.7498 16.875V13.125C21.7488 12.2302 21.3929 11.3724 20.7602 10.7396C20.1275 10.1069 19.2696 9.75102 18.3748 9.75003ZM8.24982 19.5C8.24982 19.6989 8.1708 19.8897 8.03015 20.0304C7.8895 20.171 7.69873 20.25 7.49982 20.25C7.30091 20.25 7.11014 20.171 6.96949 20.0304C6.82884 19.8897 6.74982 19.6989 6.74982 19.5V12C6.74982 11.8011 6.82884 11.6104 6.96949 11.4697C7.11014 11.329 7.30091 11.25 7.49982 11.25C7.69873 11.25 7.8895 11.329 8.03015 11.4697C8.1708 11.6104 8.24982 11.8011 8.24982 12V19.5ZM11.2498 19.5C11.2498 19.6989 11.1708 19.8897 11.0302 20.0304C10.8895 20.171 10.6987 20.25 10.4998 20.25C10.3009 20.25 10.1101 20.171 9.96949 20.0304C9.82884 19.8897 9.74982 19.6989 9.74982 19.5V12C9.74982 11.8011 9.82884 11.6104 9.96949 11.4697C10.1101 11.329 10.3009 11.25 10.4998 11.25C10.6987 11.25 10.8895 11.329 11.0302 11.4697C11.1708 11.6104 11.2498 11.8011 11.2498 12V19.5ZM14.2498 19.5C14.2498 19.6989 14.1708 19.8897 14.0302 20.0304C13.8895 20.171 13.6987 20.25 13.4998 20.25C13.3009 20.25 13.1101 20.171 12.9695 20.0304C12.8288 19.8897 12.7498 19.6989 12.7498 19.5V12C12.7498 11.8011 12.8288 11.6104 12.9695 11.4697C13.1101 11.329 13.3009 11.25 13.4998 11.25C13.6987 11.25 13.8895 11.329 14.0302 11.4697C14.1708 11.6104 14.2498 11.8011 14.2498 12V19.5ZM14.9998 9.00003C14.6094 9.00003 14.0365 8.75722 13.7487 8.46987C13.6081 8.3292 13.4174 8.25012 13.2186 8.25003H7.49982C7.34617 8.25037 7.19634 8.2979 7.07058 8.38618C6.94483 8.47446 6.84922 8.59923 6.7967 8.74362C6.47654 9.61925 5.69044 9.75003 5.24982 9.75003C4.852 9.75003 4.47046 9.59199 4.18916 9.31069C3.90786 9.02938 3.74982 8.64785 3.74982 8.25003C3.74982 7.8522 3.90786 7.47067 4.18916 7.18937C4.47046 6.90806 4.852 6.75003 5.24982 6.75003C5.25404 6.75003 5.67732 6.76597 6.01857 7.0219C6.09736 7.081 6.18702 7.124 6.28243 7.14844C6.37784 7.17288 6.47713 7.1783 6.57464 7.16437C6.67214 7.15044 6.76594 7.11744 6.85069 7.06726C6.93544 7.01708 7.00948 6.9507 7.06857 6.8719C7.12767 6.79311 7.17066 6.70345 7.19511 6.60804C7.21955 6.51263 7.22496 6.41334 7.21103 6.31584C7.1971 6.21834 7.16411 6.12453 7.11393 6.03978C7.06375 5.95503 6.99736 5.881 6.91857 5.8219C6.43262 5.46754 5.85097 5.26822 5.24982 5.25003C5.02902 5.25016 4.80892 5.27485 4.59357 5.32362C4.51915 5.15247 4.48848 4.96549 4.50432 4.77954C4.52016 4.59358 4.58202 4.41448 4.68432 4.25838C4.78662 4.10229 4.92614 3.97409 5.09032 3.88535C5.25451 3.79661 5.43819 3.7501 5.62482 3.75003C5.802 3.74918 5.97683 3.79058 6.13482 3.87079C6.29281 3.95101 6.42939 4.06773 6.53326 4.21128C6.61778 4.32786 6.69167 4.4518 6.75404 4.58159C6.77439 4.77273 6.86735 4.94875 7.01373 5.07333C7.16011 5.19791 7.34873 5.26154 7.54066 5.25107C7.73259 5.2406 7.91318 5.15685 8.04514 5.01709C8.1771 4.87733 8.25037 4.69224 8.24982 4.50003C8.24982 4.18269 8.0806 3.78894 7.74545 3.32815C7.72388 3.29862 7.69857 3.26956 7.67748 3.24097C8.36185 2.59878 9.21732 2.25003 10.1248 2.25003C10.6071 2.24864 11.0848 2.3441 11.5295 2.53074C11.9742 2.71739 12.3769 2.99142 12.7137 3.33659C13.135 3.76884 13.446 4.29616 13.6204 4.87398C13.7949 5.4518 13.8276 6.06313 13.7159 6.65628C13.6975 6.75305 13.6983 6.8525 13.7183 6.94895C13.7384 7.0454 13.7772 7.13696 13.8326 7.2184C13.888 7.29984 13.9589 7.36957 14.0413 7.4236C14.1237 7.47764 14.2159 7.51492 14.3126 7.53331C14.359 7.54202 14.4061 7.54641 14.4533 7.54644C14.6276 7.54626 14.7965 7.48532 14.9308 7.37411C15.0651 7.26289 15.1565 7.10835 15.1892 6.93706C15.2463 6.63688 15.277 6.33228 15.2811 6.02675C15.6477 6.09689 15.975 6.30119 16.199 6.59976C16.423 6.89832 16.5277 7.26968 16.4925 7.64129C16.4574 8.01289 16.285 8.35805 16.0089 8.60931C15.7329 8.86056 15.3731 8.99988 14.9998 9.00003ZM20.2498 16.875C20.2498 17.3723 20.0523 17.8492 19.7006 18.2009C19.349 18.5525 18.8721 18.75 18.3748 18.75H17.2498V11.25H18.3748C18.8721 11.25 19.349 11.4476 19.7006 11.7992C20.0523 12.1508 20.2498 12.6277 20.2498 13.125V16.875Z" fill="black"/>
</svg>
