<svg width="24" height="24" viewBox="0 0 24 24" fill="none" xmlns="http://www.w3.org/2000/svg">
<path d="M20.25 6.75L18.9061 19.6753C18.8631 20.0403 18.6877 20.3767 18.4131 20.6209C18.1385 20.8651 17.7839 21 17.4164 21H6.58406C6.2166 21 5.86193 20.8651 5.58733 20.6209C5.31273 20.3767 5.13732 20.0403 5.09438 19.6753L3.75 6.75" stroke="black" stroke-width="1.5" stroke-linecap="round" stroke-linejoin="round"/>
<path d="M21.75 3H2.25C1.83579 3 1.5 3.33579 1.5 3.75V6C1.5 6.41421 1.83579 6.75 2.25 6.75H21.75C22.1642 6.75 22.5 6.41421 22.5 6V3.75C22.5 3.33579 22.1642 3 21.75 3Z" stroke="black" stroke-width="1.5" stroke-linecap="round" stroke-linejoin="round"/>
<path d="M14.625 11.25L9.375 16.5M14.625 16.5L9.375 11.25" stroke="black" stroke-width="1.5" stroke-linecap="round" stroke-linejoin="round"/>
</svg>
