<svg width="24" height="24" viewBox="0 0 24 24" fill="none" xmlns="http://www.w3.org/2000/svg">
<path d="M9.48 3.4688C7.78641 2.66021 5.41922 2.26411 2.25 2.25005C1.95111 2.24599 1.65809 2.33314 1.41 2.49989C1.20637 2.63753 1.03968 2.8231 0.924597 3.04028C0.809512 3.25745 0.749555 3.49958 0.750002 3.74536V17.1563C0.750002 18.0629 1.395 18.7468 2.25 18.7468C5.58141 18.7468 8.92313 19.058 10.9247 20.9499C10.9521 20.9759 10.9865 20.9933 11.0237 20.9999C11.0608 21.0065 11.0991 21.002 11.1338 20.987C11.1685 20.972 11.1979 20.9472 11.2186 20.9156C11.2393 20.884 11.2502 20.847 11.25 20.8093V5.00724C11.2501 4.90062 11.2273 4.79523 11.1831 4.69819C11.139 4.60115 11.0745 4.51472 10.9941 4.44474C10.5356 4.05278 10.0263 3.72451 9.48 3.4688ZM22.59 2.49849C22.3418 2.33215 22.0488 2.24548 21.75 2.25005C18.5808 2.26411 16.2136 2.65833 14.52 3.4688C13.9737 3.72405 13.4643 4.05168 13.0055 4.44286C12.9252 4.51296 12.8609 4.59943 12.8168 4.69645C12.7728 4.79347 12.75 4.8988 12.75 5.00536V20.8083C12.75 20.8446 12.7607 20.8801 12.7807 20.9103C12.8008 20.9406 12.8293 20.9642 12.8628 20.9783C12.8962 20.9923 12.9331 20.9962 12.9687 20.9894C13.0044 20.9826 13.0372 20.9654 13.0631 20.9401C14.2664 19.7447 16.3781 18.7454 21.7519 18.7458C22.1497 18.7458 22.5312 18.5878 22.8125 18.3065C23.0938 18.0252 23.2519 17.6437 23.2519 17.2458V3.74583C23.2524 3.49956 23.1923 3.25695 23.0769 3.0394C22.9615 2.82186 22.7942 2.63609 22.59 2.49849Z" fill="black"/>
</svg>
