<svg width="24" height="24" viewBox="0 0 24 24" fill="none" xmlns="http://www.w3.org/2000/svg">
<path d="M6.33719 18.2878C6.4638 18.4329 6.61999 18.5492 6.79528 18.6289C6.97056 18.7086 7.16088 18.7499 7.35344 18.75H18.8969C19.2553 18.7484 19.5986 18.6053 19.852 18.3519C20.1055 18.0984 20.2486 17.7551 20.2502 17.3967V6.60328C20.2486 6.24486 20.1055 5.90158 19.852 5.64814C19.5986 5.3947 19.2553 5.2516 18.8969 5.25H7.35344C7.16105 5.25018 6.97092 5.29142 6.79575 5.37096C6.62058 5.4505 6.4644 5.56652 6.33766 5.71125L2.17188 12L6.33719 18.2864V18.2878Z" stroke="black" stroke-width="1.5" stroke-linejoin="round"/>
<path d="M15.7817 9.01538L9.6875 15.1096M15.7817 15.1096L9.6875 9.01538M15.7817 9.01538L9.6875 15.1096M15.7817 15.1096L9.6875 9.01538" stroke="black" stroke-width="1.5" stroke-linecap="round" stroke-linejoin="round"/>
</svg>
