<svg width="24" height="24" viewBox="0 0 24 24" fill="none" xmlns="http://www.w3.org/2000/svg">
<path d="M18.8967 4.5H7.35325C7.05436 4.50037 6.75898 4.56439 6.48676 4.68781C6.21455 4.81123 5.97174 4.99121 5.7745 5.21578C5.74033 5.25474 5.71032 5.29716 5.68497 5.34234L1.49997 11.6133C1.4297 11.73 1.39258 11.8637 1.39258 12C1.39258 12.1363 1.4297 12.27 1.49997 12.3867L5.67887 18.6478C5.70516 18.6961 5.73659 18.7413 5.77262 18.7828C5.96982 19.0078 6.21272 19.1881 6.48512 19.3118C6.75751 19.4355 7.05315 19.4996 7.35231 19.5H18.8967C19.4543 19.4994 19.9889 19.2776 20.3832 18.8833C20.7775 18.489 20.9993 17.9544 21 17.3967V6.60328C20.9993 6.04565 20.7775 5.51103 20.3832 5.11672C19.9889 4.72241 19.4543 4.50062 18.8967 4.5ZM16.3125 14.5781C16.3838 14.6474 16.4406 14.7302 16.4796 14.8216C16.5186 14.913 16.5391 15.0113 16.5398 15.1107C16.5405 15.2101 16.5214 15.3087 16.4837 15.4007C16.446 15.4926 16.3903 15.5762 16.32 15.6465C16.2497 15.7168 16.1661 15.7724 16.0742 15.8101C15.9822 15.8477 15.8836 15.8668 15.7842 15.866C15.6848 15.8653 15.5865 15.8448 15.4951 15.8057C15.4037 15.7666 15.3209 15.7098 15.2517 15.6384L12.7345 13.125L10.2187 15.6398C10.0779 15.7806 9.88697 15.8597 9.68786 15.8597C9.48875 15.8597 9.29779 15.7806 9.157 15.6398C9.01621 15.4991 8.93711 15.3081 8.93711 15.109C8.93711 14.9099 9.01621 14.7189 9.157 14.5781L11.6718 12.0623L9.15512 9.54562C9.01439 9.40458 8.93545 9.21341 8.93567 9.01417C8.93589 8.81493 9.01525 8.62393 9.1563 8.4832C9.29734 8.34247 9.48851 8.26353 9.68775 8.26375C9.88699 8.26397 10.078 8.34333 10.2187 8.48438L12.7354 11.0016L15.2512 8.48438C15.3919 8.34364 15.5828 8.26458 15.7818 8.26458C15.9809 8.26458 16.1717 8.34364 16.3125 8.48438C16.4532 8.62511 16.5323 8.81598 16.5323 9.015C16.5323 9.21402 16.4532 9.40489 16.3125 9.54562L13.7953 12.0623L16.3125 14.5781Z" fill="black"/>
</svg>
