<svg width="24" height="24" viewBox="0 0 24 24" fill="none" xmlns="http://www.w3.org/2000/svg">
<path d="M21.7288 12.7561H18.7499V10.4967C18.7499 10.3617 18.7457 10.2294 18.7373 10.0997C20.1234 8.79281 20.249 7.07016 20.2499 5.27156C20.2499 4.86797 19.9387 4.52156 19.5351 4.50234C19.4339 4.49759 19.3328 4.5134 19.2378 4.54881C19.1429 4.58422 19.0561 4.63851 18.9827 4.70838C18.9094 4.77825 18.8509 4.86227 18.8109 4.95536C18.7709 5.04845 18.7501 5.14868 18.7499 5.25C18.7499 6.5625 18.6627 7.50703 18.2859 8.2425C17.3849 6.31359 15.2024 5.24672 11.9999 5.24672C10.1343 5.24672 8.52228 5.67469 7.33915 6.48375C6.64071 6.96141 6.11103 7.55766 5.75946 8.25188C5.34368 7.53047 5.24993 6.60938 5.24993 5.27156C5.24993 4.86797 4.94056 4.52156 4.53743 4.50094C4.43591 4.49586 4.33441 4.51146 4.23911 4.54681C4.14381 4.58216 4.05668 4.63652 3.98303 4.70657C3.90938 4.77663 3.85074 4.86093 3.81066 4.95435C3.77059 5.04776 3.74993 5.14835 3.74993 5.25C3.74993 7.01391 3.87228 8.70609 5.27056 10.0139C5.25712 10.172 5.25024 10.333 5.24993 10.4967V12.7561H2.27103C1.86743 12.7561 1.52103 13.0664 1.50087 13.47C1.49598 13.5715 1.51176 13.6729 1.54726 13.7681C1.58275 13.8633 1.63722 13.9503 1.70736 14.0238C1.7775 14.0973 1.86184 14.1558 1.95527 14.1958C2.0487 14.2357 2.14927 14.2562 2.25087 14.2561H5.25087V15C5.25018 15.8624 5.41553 16.7168 5.7379 17.5167C4.53462 18.5925 3.75837 19.7813 3.74993 21.7191C3.74993 22.1288 4.06024 22.4831 4.46993 22.4995C4.57088 22.5036 4.6716 22.4872 4.76606 22.4513C4.86051 22.4155 4.94675 22.3609 5.01959 22.2909C5.09244 22.2209 5.15039 22.1369 5.18997 22.044C5.22956 21.951 5.24995 21.851 5.24993 21.75C5.24993 20.4534 5.67649 19.6542 6.47665 18.8756C7.39936 20.189 8.75888 21.1317 10.3124 21.5353C10.4233 21.5639 10.5392 21.5668 10.6513 21.5437C10.7634 21.5206 10.8687 21.4722 10.9592 21.4021C11.0497 21.332 11.1229 21.2421 11.1733 21.1394C11.2237 21.0366 11.2499 20.9237 11.2499 20.8092V9.02109C11.2499 8.6175 11.5602 8.27109 11.9638 8.25094C12.0652 8.24605 12.1666 8.26181 12.2617 8.29724C12.3569 8.33268 12.4438 8.38707 12.5173 8.4571C12.5908 8.52714 12.6493 8.61137 12.6893 8.70469C12.7293 8.79801 12.7499 8.89848 12.7499 9V20.8092C12.7499 20.9237 12.7762 21.0366 12.8266 21.1394C12.877 21.2421 12.9502 21.332 13.0407 21.4021C13.1312 21.4722 13.2365 21.5206 13.3486 21.5437C13.4607 21.5668 13.5766 21.5639 13.6874 21.5353C15.2408 21.1315 16.6001 20.1889 17.5227 18.8756C18.3196 19.6509 18.7457 20.4469 18.7495 21.7327C18.7478 21.9266 18.82 22.1139 18.9515 22.2564C19.083 22.399 19.2638 22.4861 19.4573 22.5C19.5593 22.5058 19.6614 22.4907 19.7574 22.4556C19.8534 22.4206 19.9412 22.3662 20.0154 22.296C20.0896 22.2258 20.1487 22.1411 20.189 22.0472C20.2294 21.9533 20.2501 21.8522 20.2499 21.75C20.2499 19.7963 19.4718 18.5986 18.2629 17.5167C18.5853 16.7168 18.7506 15.8624 18.7499 15V14.2561H21.7499C21.8515 14.2562 21.9521 14.2357 22.0455 14.1958C22.139 14.1558 22.2233 14.0973 22.2934 14.0238C22.3636 13.9503 22.418 13.8633 22.4535 13.7681C22.489 13.6729 22.5048 13.5715 22.4999 13.47C22.4802 13.0664 22.1324 12.7561 21.7288 12.7561Z" fill="black"/>
<path d="M15.0655 4.875L15.0805 4.87922C15.7166 5.05734 16.2557 4.38469 15.9336 3.80813C15.5444 3.10888 14.9756 2.52626 14.2858 2.12048C13.5961 1.71471 12.8104 1.5005 12.0102 1.5H11.9905C11.1822 1.50055 10.389 1.71911 9.69442 2.13266C8.99989 2.54622 8.42976 3.13944 8.0441 3.84984C7.72347 4.43953 8.28503 5.11547 8.92722 4.92141C9.85113 4.64016 10.8861 4.49672 12.0003 4.49672C13.1296 4.49672 14.1608 4.62422 15.0655 4.875Z" fill="black"/>
</svg>
