<svg width="24" height="24" viewBox="0 0 24 24" fill="none" xmlns="http://www.w3.org/2000/svg">
<path d="M20.25 6.75H17.4844C17.3438 6.75 17.1694 6.65906 17.0334 6.51562L15.8175 4.59656C15.7983 4.56611 15.7768 4.53712 15.7533 4.50984C15.3333 4.02 14.7656 3.75 14.1562 3.75H9.84375C9.23438 3.75 8.66672 4.02 8.24672 4.50984C8.2232 4.53712 8.20173 4.56611 8.1825 4.59656L6.96656 6.51844C6.8625 6.63187 6.71625 6.75281 6.5625 6.75281V6.37781C6.5625 6.1789 6.48348 5.98813 6.34283 5.84748C6.20218 5.70683 6.01141 5.62781 5.8125 5.62781H4.6875C4.48859 5.62781 4.29782 5.70683 4.15717 5.84748C4.01652 5.98813 3.9375 6.1789 3.9375 6.37781V6.75281H3.75C3.15345 6.75343 2.58152 6.99069 2.1597 7.41251C1.73787 7.83433 1.50062 8.40627 1.5 9.00281V18C1.50062 18.5965 1.73787 19.1685 2.1597 19.5903C2.58152 20.0121 3.15345 20.2494 3.75 20.25H20.25C20.8465 20.2494 21.4185 20.0121 21.8403 19.5903C22.2621 19.1685 22.4994 18.5965 22.5 18V9C22.4994 8.40345 22.2621 7.83152 21.8403 7.40969C21.4185 6.98787 20.8465 6.75062 20.25 6.75ZM14.8519 16.2328C14.2391 16.7339 13.505 17.0646 12.7236 17.1915C11.9423 17.3185 11.1413 17.2372 10.4014 16.9559C9.66142 16.6746 9.00873 16.2032 8.50907 15.5892C8.00941 14.9752 7.68044 14.2404 7.55531 13.4587C7.39518 13.5131 7.22139 13.5117 7.06214 13.4549C6.90288 13.398 6.76752 13.289 6.67801 13.1455C6.5885 13.0021 6.5501 12.8326 6.56904 12.6645C6.58798 12.4965 6.66315 12.3398 6.78234 12.2198L7.71984 11.2823C7.86048 11.1418 8.05117 11.0628 8.25 11.0628C8.44883 11.0628 8.63952 11.1418 8.78016 11.2823L9.71766 12.2198C9.82248 12.3247 9.89385 12.4583 9.92276 12.6038C9.95167 12.7492 9.93682 12.9 9.88008 13.037C9.82334 13.174 9.72727 13.2911 9.604 13.3735C9.48072 13.4559 9.33579 13.4999 9.1875 13.5C9.15615 13.4996 9.12485 13.4974 9.09375 13.4934C9.21924 13.9822 9.46588 14.4315 9.8109 14.7998C10.1559 15.1681 10.5882 15.4436 11.0677 15.6007C11.5473 15.7578 12.0588 15.7915 12.5548 15.6987C13.0509 15.6059 13.5156 15.3897 13.9059 15.0698C13.9822 15.0071 14.0702 14.9601 14.1647 14.9315C14.2592 14.9028 14.3585 14.8931 14.4568 14.903C14.555 14.9128 14.6504 14.9419 14.7374 14.9887C14.8244 15.0355 14.9013 15.099 14.9637 15.1756C15.026 15.2521 15.0727 15.3403 15.1009 15.4349C15.1291 15.5296 15.1384 15.6289 15.1281 15.7271C15.1179 15.8254 15.0883 15.9206 15.0411 16.0074C14.994 16.0942 14.9301 16.1708 14.8533 16.2328H14.8519ZM17.2177 13.2797L16.2802 14.2172C16.1395 14.3577 15.9488 14.4367 15.75 14.4367C15.5512 14.4367 15.3605 14.3577 15.2198 14.2172L14.2823 13.2797C14.1727 13.1697 14.0999 13.0284 14.074 12.8753C14.0481 12.7222 14.0703 12.5648 14.1376 12.4249C14.205 12.285 14.3141 12.1694 14.4499 12.0941C14.5857 12.0189 14.7416 11.9876 14.8959 12.0047C14.7706 11.515 14.5236 11.065 14.1779 10.6963C13.8322 10.3276 13.3989 10.0523 12.9183 9.89581C12.4377 9.73935 11.9253 9.70685 11.4288 9.80133C10.9323 9.89581 10.4677 10.1142 10.0781 10.4362C10.0028 10.5029 9.91484 10.5537 9.81947 10.5857C9.72411 10.6176 9.62329 10.6301 9.52302 10.6223C9.42274 10.6145 9.32506 10.5866 9.23578 10.5403C9.1465 10.494 9.06745 10.4302 9.00332 10.3527C8.9392 10.2752 8.89132 10.1856 8.86253 10.0893C8.83374 9.99289 8.82462 9.89171 8.83572 9.79175C8.84683 9.69179 8.87793 9.59508 8.92717 9.50738C8.9764 9.41968 9.04278 9.34278 9.12234 9.28125C9.73422 8.77529 10.4691 8.44023 11.2523 8.31007C12.0355 8.17991 12.8392 8.2593 13.5819 8.54016C14.3245 8.82103 14.9796 9.29338 15.4807 9.90926C15.9817 10.5251 16.3109 11.2626 16.4348 12.0469C16.595 11.9898 16.7699 11.9888 16.9307 12.0442C17.0915 12.0995 17.2288 12.2079 17.3199 12.3515C17.411 12.4951 17.4506 12.6654 17.4322 12.8345C17.4138 13.0036 17.3385 13.1614 17.2186 13.282L17.2177 13.2797Z" fill="black"/>
</svg>
