<svg width="24" height="24" viewBox="0 0 24 24" fill="none" xmlns="http://www.w3.org/2000/svg">
<path d="M12.1359 2.24993C6.65243 2.17587 2.17587 6.65243 2.24993 12.1359C2.32305 17.3948 6.60509 21.6768 11.864 21.7499C17.3484 21.8249 21.824 17.3484 21.749 11.8649C21.6768 6.60509 17.3948 2.32305 12.1359 2.24993ZM11.3488 11.272L13.7652 8.50634C13.8962 8.35653 14.0812 8.26486 14.2797 8.2515C14.4782 8.23814 14.6739 8.30418 14.8237 8.43509C14.9735 8.56599 15.0652 8.75105 15.0785 8.94955C15.0919 9.14804 15.0258 9.34372 14.8949 9.49352L12.4785 12.2591C12.4137 12.3333 12.3349 12.394 12.2466 12.4377C12.1584 12.4815 12.0623 12.5074 11.9641 12.514C11.8658 12.5206 11.7671 12.5078 11.6738 12.4763C11.5805 12.4448 11.4943 12.3952 11.4201 12.3304C11.3459 12.2656 11.2852 12.1868 11.2415 12.0985C11.1978 12.0102 11.1719 11.9142 11.1653 11.8159C11.1586 11.7177 11.1714 11.619 11.2029 11.5257C11.2344 11.4324 11.284 11.3461 11.3488 11.272ZM9.52727 15.5306C9.38664 15.6711 9.19594 15.7501 8.99712 15.7501C8.79829 15.7501 8.6076 15.6711 8.46696 15.5306L6.2193 13.2806C6.14968 13.2109 6.09447 13.1282 6.05681 13.0371C6.01916 12.9461 5.9998 12.8486 5.99984 12.7501C5.99989 12.6516 6.01933 12.554 6.05707 12.463C6.0948 12.3721 6.15009 12.2894 6.21977 12.2198C6.28946 12.1502 6.37217 12.0949 6.46319 12.0573C6.55421 12.0196 6.65176 12.0003 6.75026 12.0003C6.84876 12.0004 6.94629 12.0198 7.03728 12.0575C7.12827 12.0953 7.21093 12.1506 7.28055 12.2202L9.53055 14.4702C9.67067 14.6113 9.74903 14.8022 9.74841 15.0011C9.7478 15.1999 9.66826 15.3904 9.52727 15.5306ZM17.8148 9.49352L12.5704 15.4935C12.5028 15.5709 12.4201 15.6337 12.3273 15.6778C12.2345 15.7219 12.1336 15.7464 12.0309 15.7499H12.0056C11.907 15.7499 11.8094 15.7305 11.7184 15.6928C11.6273 15.6551 11.5446 15.5998 11.4749 15.5301L9.22774 13.2801C9.08714 13.1394 9.00819 12.9485 9.00828 12.7496C9.00837 12.5507 9.08748 12.3599 9.22821 12.2193C9.36894 12.0787 9.55976 11.9998 9.7587 11.9998C9.95763 11.9999 10.1484 12.079 10.289 12.2198L11.6859 13.6181C11.7222 13.6544 11.7656 13.6829 11.8133 13.7017C11.8611 13.7206 11.9123 13.7294 11.9636 13.7277C12.0149 13.726 12.0654 13.7138 12.1118 13.6918C12.1582 13.6697 12.1996 13.6384 12.2334 13.5998L16.6865 8.50634C16.8174 8.35653 17.0025 8.26486 17.201 8.2515C17.3994 8.23814 17.5951 8.30418 17.7449 8.43509C17.8947 8.56599 17.9864 8.75105 17.9998 8.94955C18.0131 9.14804 17.9471 9.34372 17.8162 9.49352H17.8148Z" fill="black"/>
</svg>
