<svg width="24" height="24" viewBox="0 0 24 24" fill="none" xmlns="http://www.w3.org/2000/svg">
<path d="M17.625 20.2501H5.4375C3.92016 20.2501 2.61422 19.8484 1.65984 19.089C0.57375 18.2241 0 16.9402 0 15.3751C0 12.6765 1.96875 11.1291 4.10437 10.6524C4.24485 10.6204 4.37314 10.5486 4.47389 10.4456C4.57464 10.3426 4.64359 10.2128 4.6725 10.0716C5.0325 8.35226 5.81859 6.87711 6.97781 5.75914C8.32705 4.46204 10.1284 3.74143 12 3.75008C13.6641 3.75008 15.1987 4.29805 16.4381 5.33445C17.2853 6.04904 17.9593 6.94658 18.4092 7.95945C18.4576 8.06817 18.5312 8.16382 18.6239 8.23848C18.7165 8.31314 18.8257 8.36468 18.9422 8.38883C20.2078 8.6518 21.3361 9.20117 22.185 9.97555C23.3723 11.057 24 12.5354 24 14.2501C24 15.9376 23.3259 17.4788 22.102 18.5902C20.9231 19.6609 19.3331 20.2501 17.625 20.2501Z" fill="black"/>
</svg>
