<svg width="24" height="24" viewBox="0 0 24 24" fill="none" xmlns="http://www.w3.org/2000/svg">
<path d="M21 12C21 7.03125 16.9688 3 12 3C7.03125 3 3 7.03125 3 12C3 16.9688 7.03125 21 12 21C16.9688 21 21 16.9688 21 12Z" stroke="black" stroke-width="1.5" stroke-miterlimit="10"/>
<path d="M16.4375 7.07495L10.9438 9.27245C10.5665 9.42334 10.2237 9.64931 9.9364 9.93665C9.64906 10.224 9.42309 10.5667 9.27221 10.944L7.07471 16.4378C7.04743 16.5059 7.04075 16.5806 7.0555 16.6525C7.07025 16.7244 7.10578 16.7904 7.15769 16.8423C7.20959 16.8942 7.27559 16.9297 7.3475 16.9445C7.4194 16.9592 7.49406 16.9525 7.56221 16.9253L13.056 14.7278C13.4333 14.5769 13.776 14.3509 14.0633 14.0636C14.3507 13.7762 14.5766 13.4335 14.7275 13.0562L16.925 7.56245C16.9523 7.4943 16.959 7.41965 16.9442 7.34774C16.9295 7.27583 16.8939 7.20984 16.842 7.15793C16.7901 7.10603 16.7241 7.0705 16.6522 7.05575C16.5803 7.04099 16.5057 7.04767 16.4375 7.07495ZM11.9999 13.1251C11.7774 13.1251 11.5599 13.0591 11.3748 12.9355C11.1898 12.8119 11.0456 12.6362 10.9605 12.4306C10.8753 12.2251 10.8531 11.9989 10.8965 11.7806C10.9399 11.5624 11.047 11.3619 11.2044 11.2046C11.3617 11.0473 11.5622 10.9401 11.7804 10.8967C11.9986 10.8533 12.2248 10.8756 12.4304 10.9607C12.6359 11.0459 12.8116 11.1901 12.9353 11.3751C13.0589 11.5601 13.1249 11.7776 13.1249 12.0001C13.1249 12.2985 13.0063 12.5846 12.7954 12.7956C12.5844 13.0066 12.2982 13.1251 11.9999 13.1251Z" fill="black"/>
</svg>
