<svg width="24" height="24" viewBox="0 0 24 24" fill="none" xmlns="http://www.w3.org/2000/svg">
<path d="M12.3052 9.57275L3.28125 18.5948C2.69813 19.1788 2.25 21.7499 2.25 21.7499C2.25 21.7499 4.79906 21.3238 5.40516 20.7187L14.4281 11.6957" stroke="black" stroke-width="1.5" stroke-linecap="round" stroke-linejoin="round"/>
<path d="M17.612 10.6339L13.3663 6.38831C12.78 5.80198 11.8294 5.8019 11.2432 6.38815C10.657 6.97439 10.657 7.92496 11.2434 8.51129L15.489 12.7569C16.0753 13.3433 17.0259 13.3433 17.6121 12.7571C18.1984 12.1708 18.1983 11.2203 17.612 10.6339Z" stroke="black" stroke-width="1.5" stroke-linecap="round" stroke-linejoin="round"/>
<path d="M13.5898 6.60932C13.5898 6.60932 14.554 7.01104 15.3345 6.23057L17.8971 2.91979C18.7643 2.00994 20.2062 2.04369 21.0818 2.91979C21.9574 3.79541 21.9884 5.20775 21.0818 6.104L17.7687 8.66666C17.0351 9.40025 17.3899 10.4113 17.3899 10.4113M5.40542 20.7187C5.40542 20.7187 4.16417 21.5315 3.31667 20.6845C2.46917 19.8374 3.28151 18.5948 3.28151 18.5948" stroke="black" stroke-width="1.5" stroke-linecap="round" stroke-linejoin="round"/>
</svg>
