<svg width="24" height="24" viewBox="0 0 24 24" fill="none" xmlns="http://www.w3.org/2000/svg">
<path d="M21.6117 2.39062C21.0429 1.82276 20.2728 1.50265 19.4691 1.5H19.4334C19.044 1.50293 18.6591 1.58435 18.3018 1.73939C17.9446 1.89442 17.6222 2.1199 17.3541 2.40234C17.3361 2.42078 17.3193 2.44035 17.3039 2.46094L14.7726 5.73094C14.5092 6.06375 14.1755 6.13781 13.9861 5.94844L13.897 5.85938C13.4748 5.43718 12.9022 5.2 12.3051 5.2C11.7081 5.2 11.1355 5.43718 10.7133 5.85938C10.2911 6.28157 10.0539 6.85418 10.0539 7.45125C10.0539 8.04832 10.2911 8.62093 10.7133 9.04313L11.1778 9.50766C11.1865 9.51636 11.1934 9.5267 11.1982 9.53808C11.2029 9.54947 11.2053 9.56166 11.2053 9.57398C11.2053 9.5863 11.2029 9.5985 11.1982 9.60989C11.1934 9.62127 11.1865 9.63161 11.1778 9.64031L2.75156 18.0647C2.53124 18.2836 2.19843 18.743 1.82109 20.2031C1.63077 20.9395 1.51593 21.5934 1.51124 21.6206C1.49236 21.7284 1.49731 21.8391 1.52573 21.9447C1.55414 22.0504 1.60535 22.1486 1.67575 22.2324C1.74614 22.3162 1.83403 22.3836 1.93323 22.4298C2.03243 22.476 2.14055 22.5 2.24999 22.5C2.29146 22.5001 2.33286 22.4966 2.37374 22.4897C2.40093 22.485 3.05062 22.3758 3.78609 22.1878C5.24249 21.8156 5.71031 21.4734 5.93531 21.2503L14.362 12.8227C14.3796 12.8052 14.4033 12.7954 14.4281 12.7954C14.4529 12.7954 14.4766 12.8052 14.4942 12.8227L14.9592 13.2877C15.3815 13.7098 15.9541 13.947 16.5513 13.947C17.1484 13.9469 17.721 13.7097 18.1432 13.2874C18.5654 12.8652 18.8025 12.2925 18.8025 11.6954C18.8025 11.0983 18.5652 10.5256 18.143 10.1034L18.0684 10.0312C17.8341 9.79688 17.9503 9.46359 18.2709 9.22781L21.5405 6.69938C21.5646 6.68004 21.5876 6.65938 21.6094 6.6375C21.8903 6.36258 22.1138 6.03448 22.2667 5.67233C22.4196 5.31019 22.4989 4.92123 22.5 4.52812C22.5012 4.13072 22.4233 3.73705 22.2707 3.37007C22.1182 3.00309 21.8942 2.67014 21.6117 2.39062ZM11.7553 13.3078C11.6184 13.4447 10.9969 13.6791 10.6589 13.3411C10.3209 13.0031 10.5539 12.3839 10.6912 12.2466L12.2381 10.6997C12.2468 10.691 12.2572 10.6841 12.2685 10.6793C12.2799 10.6746 12.2921 10.6722 12.3044 10.6722C12.3168 10.6722 12.329 10.6746 12.3403 10.6793C12.3517 10.6841 12.3621 10.691 12.3708 10.6997L13.3008 11.6292C13.3095 11.6379 13.3164 11.6483 13.3211 11.6596C13.3258 11.671 13.3283 11.6832 13.3283 11.6955C13.3283 11.7079 13.3258 11.7201 13.3211 11.7314C13.3164 11.7428 13.3095 11.7532 13.3008 11.7619L11.7553 13.3078Z" fill="black"/>
</svg>
