<svg width="24" height="24" viewBox="0 0 24 24" fill="none" xmlns="http://www.w3.org/2000/svg">
<path d="M20.4375 3.75H3.5625C3.01568 3.75062 2.49144 3.96812 2.10478 4.35478C1.71812 4.74144 1.50062 5.26568 1.5 5.8125V18.1875C1.50062 18.7343 1.71812 19.2586 2.10478 19.6452C2.49144 20.0319 3.01568 20.2494 3.5625 20.25H20.4375C20.9843 20.2494 21.5086 20.0319 21.8952 19.6452C22.2819 19.2586 22.4994 18.7343 22.5 18.1875V5.8125C22.4994 5.26568 22.2819 4.74144 21.8952 4.35478C21.5086 3.96812 20.9843 3.75062 20.4375 3.75ZM5.25 18.1875C5.25 18.3367 5.19074 18.4798 5.08525 18.5852C4.97976 18.6907 4.83668 18.75 4.6875 18.75H3.5625C3.41332 18.75 3.27024 18.6907 3.16475 18.5852C3.05926 18.4798 3 18.3367 3 18.1875V17.0625C3 16.9133 3.05926 16.7702 3.16475 16.6648C3.27024 16.5593 3.41332 16.5 3.5625 16.5H4.6875C4.83668 16.5 4.97976 16.5593 5.08525 16.6648C5.19074 16.7702 5.25 16.9133 5.25 17.0625V18.1875ZM5.25 14.4375C5.25 14.5867 5.19074 14.7298 5.08525 14.8352C4.97976 14.9407 4.83668 15 4.6875 15H3.5625C3.41332 15 3.27024 14.9407 3.16475 14.8352C3.05926 14.7298 3 14.5867 3 14.4375V13.3125C3 13.1633 3.05926 13.0202 3.16475 12.9148C3.27024 12.8093 3.41332 12.75 3.5625 12.75H4.6875C4.83668 12.75 4.97976 12.8093 5.08525 12.9148C5.19074 13.0202 5.25 13.1633 5.25 13.3125V14.4375ZM5.25 10.6875C5.25 10.8367 5.19074 10.9798 5.08525 11.0852C4.97976 11.1907 4.83668 11.25 4.6875 11.25H3.5625C3.41332 11.25 3.27024 11.1907 3.16475 11.0852C3.05926 10.9798 3 10.8367 3 10.6875V9.5625C3 9.41332 3.05926 9.27024 3.16475 9.16475C3.27024 9.05926 3.41332 9 3.5625 9H4.6875C4.83668 9 4.97976 9.05926 5.08525 9.16475C5.19074 9.27024 5.25 9.41332 5.25 9.5625V10.6875ZM5.25 6.9375C5.25 7.08668 5.19074 7.22976 5.08525 7.33525C4.97976 7.44074 4.83668 7.5 4.6875 7.5H3.5625C3.41332 7.5 3.27024 7.44074 3.16475 7.33525C3.05926 7.22976 3 7.08668 3 6.9375V5.8125C3 5.66332 3.05926 5.52024 3.16475 5.41475C3.27024 5.30926 3.41332 5.25 3.5625 5.25H4.6875C4.83668 5.25 4.97976 5.30926 5.08525 5.41475C5.19074 5.52024 5.25 5.66332 5.25 5.8125V6.9375ZM16.5787 12.75H7.42125C7.22234 12.75 7.03157 12.671 6.89092 12.5303C6.75027 12.3897 6.67125 12.1989 6.67125 12C6.67125 11.8011 6.75027 11.6103 6.89092 11.4697C7.03157 11.329 7.22234 11.25 7.42125 11.25H16.5787C16.7777 11.25 16.9684 11.329 17.1091 11.4697C17.2497 11.6103 17.3287 11.8011 17.3287 12C17.3287 12.1989 17.2497 12.3897 17.1091 12.5303C16.9684 12.671 16.7777 12.75 16.5787 12.75ZM21 18.1875C21 18.3367 20.9407 18.4798 20.8352 18.5852C20.7298 18.6907 20.5867 18.75 20.4375 18.75H19.3125C19.1633 18.75 19.0202 18.6907 18.9148 18.5852C18.8093 18.4798 18.75 18.3367 18.75 18.1875V17.0625C18.75 16.9133 18.8093 16.7702 18.9148 16.6648C19.0202 16.5593 19.1633 16.5 19.3125 16.5H20.4375C20.5867 16.5 20.7298 16.5593 20.8352 16.6648C20.9407 16.7702 21 16.9133 21 17.0625V18.1875ZM21 14.4375C21 14.5867 20.9407 14.7298 20.8352 14.8352C20.7298 14.9407 20.5867 15 20.4375 15H19.3125C19.1633 15 19.0202 14.9407 18.9148 14.8352C18.8093 14.7298 18.75 14.5867 18.75 14.4375V13.3125C18.75 13.1633 18.8093 13.0202 18.9148 12.9148C19.0202 12.8093 19.1633 12.75 19.3125 12.75H20.4375C20.5867 12.75 20.7298 12.8093 20.8352 12.9148C20.9407 13.0202 21 13.1633 21 13.3125V14.4375ZM21 10.6875C21 10.8367 20.9407 10.9798 20.8352 11.0852C20.7298 11.1907 20.5867 11.25 20.4375 11.25H19.3125C19.1633 11.25 19.0202 11.1907 18.9148 11.0852C18.8093 10.9798 18.75 10.8367 18.75 10.6875V9.5625C18.75 9.41332 18.8093 9.27024 18.9148 9.16475C19.0202 9.05926 19.1633 9 19.3125 9H20.4375C20.5867 9 20.7298 9.05926 20.8352 9.16475C20.9407 9.27024 21 9.41332 21 9.5625V10.6875ZM21 6.9375C21 7.08668 20.9407 7.22976 20.8352 7.33525C20.7298 7.44074 20.5867 7.5 20.4375 7.5H19.3125C19.1633 7.5 19.0202 7.44074 18.9148 7.33525C18.8093 7.22976 18.75 7.08668 18.75 6.9375V5.8125C18.75 5.66332 18.8093 5.52024 18.9148 5.41475C19.0202 5.30926 19.1633 5.25 19.3125 5.25H20.4375C20.5867 5.25 20.7298 5.30926 20.8352 5.41475C20.9407 5.52024 21 5.66332 21 5.8125V6.9375Z" fill="black"/>
</svg>
