<svg width="24" height="24" viewBox="0 0 24 24" fill="none" xmlns="http://www.w3.org/2000/svg">
<path d="M21.2029 17.1094L15.3473 7.83375C15.1205 7.47389 15.0003 7.05721 15.0004 6.63188V3H15.7298C16.1334 3 16.4798 2.68969 16.4999 2.28609C16.5048 2.18465 16.489 2.08327 16.4536 1.98809C16.4181 1.89292 16.3637 1.80595 16.2936 1.73244C16.2235 1.65894 16.1392 1.60043 16.0459 1.56048C15.9525 1.52052 15.852 1.49995 15.7504 1.5H8.27149C7.8679 1.5 7.52149 1.81031 7.50133 2.21391C7.49645 2.31531 7.5122 2.41666 7.54764 2.5118C7.58308 2.60693 7.63746 2.69389 7.7075 2.76739C7.77754 2.84089 7.86177 2.8994 7.95509 2.93939C8.04841 2.97937 8.14887 2.99999 8.2504 3H9.0004V6.63188C9.00068 7.05715 8.88023 7.47377 8.65305 7.83328L2.7979 17.1094C2.45928 17.6362 2.26959 18.2448 2.24895 18.8707C2.22832 19.4966 2.37752 20.1164 2.68071 20.6644C3.30227 21.8058 4.51727 22.5 5.81899 22.5H18.1818C19.4835 22.5 20.6985 21.8058 21.3201 20.662C21.6228 20.1144 21.7718 19.495 21.7511 18.8696C21.7305 18.2441 21.5411 17.6359 21.2029 17.1094ZM9.92196 8.63437C10.3003 8.03501 10.5008 7.34065 10.5004 6.63188V3.1875C10.5004 3.13777 10.5202 3.09008 10.5553 3.05492C10.5905 3.01975 10.6382 3 10.6879 3H13.3129C13.3626 3 13.4103 3.01975 13.4455 3.05492C13.4806 3.09008 13.5004 3.13777 13.5004 3.1875V6.63188C13.5001 7.34069 13.7008 8.03506 14.0793 8.63437L16.7887 12.9248C16.8245 12.9816 16.8444 13.047 16.8464 13.1141C16.8484 13.1812 16.8323 13.2476 16.7998 13.3064C16.7673 13.3651 16.7197 13.4141 16.6618 13.4482C16.6039 13.4822 16.538 13.5001 16.4709 13.5H7.52993C7.46283 13.5 7.39695 13.4821 7.33915 13.448C7.28136 13.4139 7.23378 13.3649 7.20136 13.3062C7.16895 13.2474 7.15289 13.181 7.15486 13.114C7.15684 13.0469 7.17677 12.9816 7.21258 12.9248L9.92196 8.63437Z" fill="black"/>
</svg>
