<svg width="24" height="24" viewBox="0 0 24 24" fill="none" xmlns="http://www.w3.org/2000/svg">
<path d="M19.2731 4.56844C17.2702 2.61844 14.6194 1.5 12 1.5C9.38062 1.5 6.72984 2.61844 4.72687 4.56844C2.64609 6.59391 1.5 9.23438 1.5 12C1.5 13.2502 1.91016 14.8636 3.04125 17.8852C4.17234 20.9067 6.42188 22.1719 7.37203 22.3786C7.64438 22.4381 7.96359 22.5 8.25 22.5C8.74352 22.5004 9.22847 22.3711 9.65625 22.125L10.3125 21.75C11.0189 21.3366 11.2252 20.4314 10.8188 19.718L6.74438 12.5662C6.64729 12.3951 6.51721 12.2449 6.36168 12.1244C6.20615 12.0039 6.02825 11.9155 5.8383 11.8642C5.64834 11.8129 5.4501 11.7999 5.25505 11.8258C5.06001 11.8516 4.87204 11.916 4.70203 12.015L4.06031 12.39C3.81367 12.5345 3.59206 12.718 3.40406 12.9333C3.38073 12.9607 3.35001 12.9808 3.31557 12.9912C3.28114 13.0016 3.24443 13.0018 3.20984 12.9919C3.17526 12.9821 3.14424 12.9624 3.1205 12.9354C3.09675 12.9084 3.08128 12.8751 3.07594 12.8395C3.02869 12.5621 3.0033 12.2814 3 12C3 9.64172 3.98438 7.38375 5.77313 5.64328C7.5 3.96328 9.76828 3 12 3C14.2317 3 16.5 3.96328 18.2269 5.64328C20.0156 7.38375 21 9.64172 21 12C20.9958 12.2815 20.9694 12.5622 20.9212 12.8395C20.9159 12.8751 20.9004 12.9084 20.8767 12.9354C20.8529 12.9624 20.8219 12.9821 20.7873 12.9919C20.7528 13.0018 20.7161 13.0016 20.6816 12.9912C20.6472 12.9808 20.6165 12.9607 20.5931 12.9333C20.4051 12.718 20.1835 12.5345 19.9369 12.39L19.2952 12.015C19.1251 11.916 18.9372 11.8516 18.7421 11.8258C18.5471 11.7999 18.3488 11.8129 18.1589 11.8642C17.9689 11.9155 17.791 12.0039 17.6355 12.1244C17.48 12.2449 17.3499 12.3951 17.2528 12.5662L13.1813 19.718C12.7748 20.4314 12.9811 21.3366 13.6875 21.75L14.3438 22.125C14.7715 22.3711 15.2565 22.5004 15.75 22.5C16.0364 22.5 16.3556 22.4381 16.628 22.3786C17.5781 22.1719 19.8281 20.9062 20.9587 17.8852C22.0894 14.8641 22.5 13.2502 22.5 12C22.5 9.23438 21.3539 6.59391 19.2731 4.56844Z" fill="black"/>
</svg>
