<svg width="24" height="24" viewBox="0 0 24 24" fill="none" xmlns="http://www.w3.org/2000/svg">
<path d="M3.89062 18C3.28125 16.4531 2.25 13.6233 2.25 12C2.25 6.615 6.99984 2.25 12 2.25C17.0002 2.25 21.75 6.615 21.75 12C21.75 13.6233 20.6719 16.5469 20.1094 18" stroke="black" stroke-width="1.5" stroke-linecap="round" stroke-linejoin="round"/>
<path d="M5.081 12.6623L4.43928 13.0373C3.02225 13.867 2.95335 16.4315 4.28085 18.7654C5.60835 21.0993 7.83725 22.319 9.25428 21.4898L9.896 21.1148C10.0663 21.0134 10.1901 20.8492 10.2408 20.6575C10.2914 20.4659 10.2649 20.262 10.1669 20.0896L6.09397 12.9375C6.04595 12.8524 5.98154 12.7778 5.90446 12.7179C5.82739 12.6579 5.73918 12.6139 5.64496 12.5883C5.55074 12.5627 5.45237 12.5561 5.35556 12.5688C5.25876 12.5815 5.16543 12.6133 5.081 12.6623V12.6623ZM18.9194 12.6623L19.5612 13.0373C20.9782 13.8665 21.049 16.4311 19.7196 18.765C18.3902 21.0989 16.1632 22.3186 14.7462 21.4893L14.1044 21.1143C13.9341 21.0129 13.8103 20.8487 13.7597 20.6571C13.709 20.4654 13.7355 20.2615 13.8335 20.0892L17.9065 12.9375C17.9545 12.8524 18.0189 12.7778 18.096 12.7179C18.1731 12.6579 18.2613 12.6139 18.3555 12.5883C18.4497 12.5627 18.5481 12.5561 18.6449 12.5688C18.7417 12.5815 18.835 12.6133 18.9194 12.6623V12.6623Z" stroke="black" stroke-width="1.5" stroke-miterlimit="10"/>
</svg>
