<svg width="24" height="24" viewBox="0 0 24 24" fill="none" xmlns="http://www.w3.org/2000/svg">
<path d="M17.25 1.5H6.75C5.50736 1.5 4.5 2.50736 4.5 3.75V20.25C4.5 21.4926 5.50736 22.5 6.75 22.5H17.25C18.4926 22.5 19.5 21.4926 19.5 20.25V3.75C19.5 2.50736 18.4926 1.5 17.25 1.5Z" stroke="black" stroke-width="1.5" stroke-linejoin="round"/>
<path d="M9.75 3.75H14.25" stroke="black" stroke-width="1.5" stroke-linecap="round" stroke-linejoin="round"/>
<path d="M15.6319 13.3364C15.455 13.1479 15.2407 12.9984 15.0028 12.8974C14.7648 12.7965 14.5084 12.7462 14.25 12.7499C13.7062 12.7499 13.2145 12.9567 12.8653 13.3326C12.5161 13.7085 12.3403 14.2289 12.3806 14.7857C12.4608 15.8864 13.2994 16.7812 14.25 16.7812C15.2006 16.7812 16.0378 15.8864 16.1189 14.7867C16.1601 14.2345 15.9867 13.7193 15.6319 13.3364ZM17.4229 20.9999H11.077C10.9944 21.0013 10.9125 20.9844 10.8371 20.9507C10.7617 20.9169 10.6946 20.867 10.6406 20.8045C10.582 20.7343 10.54 20.6519 10.5176 20.5633C10.4952 20.4747 10.493 20.3822 10.5112 20.2926C10.6636 19.4695 11.1384 18.7781 11.8847 18.2929C12.5475 17.8621 13.3875 17.6249 14.25 17.6249C15.1125 17.6249 15.9525 17.8621 16.6153 18.2929C17.3615 18.7781 17.8364 19.4695 17.9887 20.2926C18.0069 20.3822 18.0048 20.4747 17.9824 20.5633C17.96 20.6519 17.9179 20.7343 17.8594 20.8045C17.8053 20.867 17.7383 20.9169 17.6629 20.9507C17.5875 20.9844 17.5056 21.0013 17.4229 20.9999Z" fill="black"/>
</svg>
