<svg width="24" height="24" viewBox="0 0 24 24" fill="none" xmlns="http://www.w3.org/2000/svg">
<path d="M21.653 12.2367C21.5592 12.0136 21.3384 11.8697 21.1059 11.7919L12.3319 8.30062C12.1156 8.23313 11.8839 8.23313 11.6677 8.30062L2.90204 11.7937C2.66766 11.8669 2.44126 12.0173 2.34845 12.2405C2.25563 12.4636 2.21063 12.6797 2.30157 12.9473L4.48266 18.5325C4.51046 18.6012 4.55936 18.6592 4.62229 18.6983C4.68522 18.7374 4.75894 18.7555 4.83282 18.75C6.08391 18.6712 7.1911 18.0361 8.03813 17.2266C8.10471 17.164 8.19264 17.1292 8.28399 17.1292C8.37535 17.1292 8.46327 17.164 8.52985 17.2266C9.43548 18.0937 10.6406 18.75 12 18.75C13.3594 18.75 14.5575 18.0937 15.4631 17.2247C15.5298 17.1621 15.6178 17.1273 15.7092 17.1273C15.8007 17.1273 15.8887 17.1621 15.9553 17.2247C16.8024 18.0347 17.9095 18.6712 19.1606 18.75C19.2343 18.7556 19.3078 18.7377 19.3706 18.6989C19.4335 18.66 19.4824 18.6023 19.5103 18.5339L21.6994 12.9483C21.7922 12.7242 21.7458 12.4603 21.653 12.2367V12.2367Z" stroke="black" stroke-width="1.5" stroke-miterlimit="10"/>
<path d="M19.5 22.1784C19.5 22.1209 19.4845 22.0644 19.4551 22.0149C19.4258 21.9655 19.3836 21.9248 19.3331 21.8972C18.0638 21.2152 16.9064 20.1713 16.3973 19.6472C16.3217 19.5679 16.2208 19.5174 16.112 19.5045C16.0031 19.4916 15.8932 19.517 15.8011 19.5764C13.4419 21.0961 10.5694 21.097 8.20969 19.5788C8.11678 19.5188 8.00578 19.4932 7.89599 19.5066C7.7862 19.5199 7.68457 19.5714 7.60875 19.6519C7.10391 20.1806 5.95922 21.2128 4.68235 21.8902C4.63169 21.9158 4.58838 21.9539 4.55648 22.0009C4.52459 22.0479 4.50515 22.1022 4.5 22.1588C4.4962 22.2069 4.50351 22.2554 4.52139 22.3003C4.53926 22.3452 4.56722 22.3854 4.6031 22.4178C4.63897 22.4501 4.68181 22.4739 4.72831 22.4871C4.7748 22.5003 4.82371 22.5026 4.87125 22.4939C5.8486 22.298 6.79313 21.8527 7.69313 21.3769C7.75086 21.3465 7.81504 21.3304 7.88029 21.3299C7.94553 21.3294 8.00994 21.3445 8.06813 21.3741C9.28698 21.9943 10.6351 22.3176 12.0027 22.3178C13.3703 22.3179 14.7185 21.9949 15.9375 21.375C15.9964 21.3452 16.0615 21.3299 16.1275 21.3304C16.1934 21.3309 16.2583 21.3471 16.3167 21.3778C17.212 21.8466 18.1552 22.2961 19.1292 22.4934C19.1751 22.502 19.2223 22.5002 19.2674 22.4883C19.3125 22.4764 19.3544 22.4546 19.3901 22.4245C19.4257 22.3944 19.4543 22.3568 19.4736 22.3143C19.4929 22.2718 19.5026 22.2256 19.5019 22.1789L19.5 22.1784Z" fill="black"/>
<path d="M15 4.5V3.375C14.9991 3.0769 14.8803 2.79125 14.6695 2.58046C14.4587 2.36967 14.1731 2.25087 13.875 2.25H10.125C9.8269 2.25087 9.54125 2.36967 9.33046 2.58046C9.11967 2.79125 9.00087 3.0769 9 3.375V4.5M19.5 10.9219V6.75C19.4983 6.1538 19.2607 5.5825 18.8391 5.16092C18.4175 4.73934 17.8462 4.50173 17.25 4.5H6.75C6.1538 4.50173 5.5825 4.73934 5.16092 5.16092C4.73934 5.5825 4.50173 6.1538 4.5 6.75V11.0625M12 8.60625V18.5836" stroke="black" stroke-width="1.5" stroke-linecap="round" stroke-linejoin="round"/>
</svg>
