<svg width="24" height="24" viewBox="0 0 24 24" fill="none" xmlns="http://www.w3.org/2000/svg">
<path d="M21 12C21 7.03125 16.9688 3 12 3C7.03125 3 3 7.03125 3 12C3 16.9688 7.03125 21 12 21C16.9688 21 21 16.9688 21 12Z" stroke="black" stroke-width="1.5" stroke-miterlimit="10"/>
<path d="M12.0003 16.875C11.8498 16.8748 11.7028 16.8294 11.5784 16.7446C9.73622 15.494 8.9384 14.6353 8.49872 14.1004C7.56122 12.9581 7.11215 11.7848 7.12528 10.5145C7.13981 9.05855 8.30747 7.87402 9.72825 7.87402C10.6845 7.87402 11.3689 8.3723 11.7954 8.83074C11.8217 8.85855 11.8534 8.88069 11.8885 8.89583C11.9237 8.91097 11.9615 8.91878 11.9998 8.91878C12.0381 8.91878 12.0759 8.91097 12.1111 8.89583C12.1462 8.88069 12.1779 8.85855 12.2042 8.83074C12.6312 8.3723 13.3151 7.87402 14.2714 7.87402C15.6922 7.87402 16.8598 9.05855 16.8743 10.5145C16.8875 11.7848 16.4379 12.9581 15.5009 14.1004C15.0612 14.6367 14.2634 15.494 12.4212 16.7446C12.2971 16.8293 12.1505 16.8747 12.0003 16.875Z" fill="black"/>
</svg>
