<svg width="24" height="24" viewBox="0 0 24 24" fill="none" xmlns="http://www.w3.org/2000/svg">
<path d="M3 9V5.625C3 5.12772 3.19754 4.65081 3.54917 4.29917C3.90081 3.94754 4.37772 3.75 4.875 3.75H8.43234C8.80256 3.75001 9.16448 3.85961 9.4725 4.065L10.7775 4.935C11.0855 5.14039 11.4474 5.24999 11.8177 5.25H19.125C19.6223 5.25 20.0992 5.44754 20.4508 5.79917C20.8025 6.15081 21 6.62772 21 7.125V9" stroke="black" stroke-width="1.5" stroke-linecap="round" stroke-linejoin="round"/>
<path d="M22.4954 10.6195L21.7351 18.375C21.7351 18.8717 21.538 19.3481 21.1871 19.6997C20.8361 20.0512 20.3601 20.2491 19.8634 20.25H4.1368C3.64009 20.2491 3.16402 20.0512 2.8131 19.6997C2.46218 19.3481 2.26508 18.8717 2.26508 18.375L1.50477 10.6195C1.48827 10.4131 1.51468 10.2055 1.58234 10.0098C1.65001 9.81415 1.75745 9.63458 1.89792 9.48245C2.03838 9.33031 2.20882 9.20891 2.39851 9.12588C2.5882 9.04285 2.79302 8.99999 3.00008 9H21.0048C21.2114 9.00063 21.4157 9.04397 21.6049 9.12729C21.794 9.2106 21.9639 9.3321 22.1038 9.48417C22.2438 9.63623 22.3508 9.81557 22.4182 10.011C22.4856 10.2063 22.5119 10.4135 22.4954 10.6195V10.6195Z" stroke="black" stroke-width="1.5" stroke-linecap="round" stroke-linejoin="round"/>
</svg>
