<svg width="24" height="24" viewBox="0 0 24 24" fill="none" xmlns="http://www.w3.org/2000/svg">
<path d="M18.1875 13.5C17.4829 13.5 16.7941 13.7089 16.2083 14.1004C15.6224 14.4918 15.1658 15.0482 14.8962 15.6992C14.6265 16.3502 14.556 17.0665 14.6935 17.7575C14.8309 18.4486 15.1702 19.0833 15.6684 19.5816C16.1667 20.0798 16.8014 20.4191 17.4925 20.5565C18.1835 20.694 18.8999 20.6235 19.5508 20.3538C20.2018 20.0842 20.7582 19.6276 21.1496 19.0417C21.5411 18.4559 21.75 17.7671 21.75 17.0625C21.747 16.1186 21.3707 15.2142 20.7033 14.5467C20.0358 13.8793 19.1314 13.503 18.1875 13.5V13.5ZM5.8125 13.5C5.10791 13.5 4.41913 13.7089 3.83328 14.1004C3.24743 14.4918 2.79082 15.0482 2.52118 15.6992C2.25154 16.3502 2.18099 17.0665 2.31845 17.7575C2.45591 18.4486 2.79521 19.0833 3.29343 19.5816C3.79166 20.0798 4.42643 20.4191 5.11749 20.5565C5.80855 20.694 6.52485 20.6235 7.17581 20.3538C7.82677 20.0842 8.38316 19.6276 8.77461 19.0417C9.16606 18.4559 9.375 17.7671 9.375 17.0625C9.37203 16.1186 8.99575 15.2142 8.32829 14.5467C7.66084 13.8793 6.75642 13.503 5.8125 13.5Z" stroke="black" stroke-width="1.5" stroke-miterlimit="10"/>
<path d="M12 16.875V12.8438L9 10.875L12.75 6.75L14.625 10.125H17.25" stroke="black" stroke-width="1.5" stroke-linecap="round" stroke-linejoin="round"/>
<path d="M15.0002 6.37505C15.1978 6.37573 15.3935 6.33725 15.5761 6.26181C15.7587 6.18638 15.9246 6.0755 16.0641 5.93558C16.2035 5.79565 16.3139 5.62947 16.3888 5.44663C16.4636 5.26379 16.5015 5.06793 16.5002 4.87036C16.5024 4.67378 16.4654 4.47874 16.3913 4.29664C16.3172 4.11454 16.2076 3.94903 16.0688 3.8098C15.93 3.67058 15.7648 3.56042 15.583 3.48577C15.4011 3.41112 15.2062 3.37348 15.0096 3.37505C14.8126 3.37443 14.6174 3.41262 14.4352 3.48743C14.253 3.56225 14.0873 3.67222 13.9475 3.81107C13.6654 4.0915 13.5061 4.47253 13.5049 4.87036C13.5036 5.26818 13.6605 5.65021 13.9409 5.93239C14.2213 6.21458 14.6024 6.3738 15.0002 6.37505Z" fill="black"/>
</svg>
