<svg width="24" height="24" viewBox="0 0 24 24" fill="none" xmlns="http://www.w3.org/2000/svg">
<path d="M19.5001 22.1784C19.5001 22.1208 19.4846 22.0643 19.4551 22.0148C19.4257 21.9653 19.3834 21.9247 19.3328 21.8972C18.0639 21.2152 16.9065 20.1713 16.3975 19.6472C16.3218 19.5679 16.2209 19.5174 16.1121 19.5045C16.0033 19.4916 15.8933 19.517 15.8012 19.5764C13.442 21.0961 10.5695 21.097 8.20982 19.5788C8.11691 19.5188 8.00591 19.4932 7.89612 19.5066C7.78633 19.5199 7.6847 19.5713 7.60888 19.6519C7.10404 20.1806 5.95935 21.2128 4.68248 21.8902C4.63171 21.9157 4.58831 21.9537 4.55639 22.0007C4.52448 22.0478 4.50511 22.1021 4.50013 22.1588C4.49633 22.2069 4.50365 22.2553 4.52152 22.3003C4.5394 22.3452 4.56735 22.3854 4.60323 22.4177C4.6391 22.4501 4.68194 22.4738 4.72844 22.4871C4.77493 22.5003 4.82384 22.5026 4.87138 22.4939C5.84873 22.298 6.79326 21.8527 7.69326 21.3769C7.75099 21.3465 7.81517 21.3304 7.88042 21.3299C7.94566 21.3294 8.01008 21.3445 8.06826 21.3741C9.28676 21.9936 10.6344 22.3165 12.0013 22.3165C13.3682 22.3165 14.7159 21.9936 15.9344 21.3741C15.9932 21.3442 16.0583 21.3289 16.1243 21.3294C16.1903 21.3299 16.2552 21.3462 16.3136 21.3769C17.2089 21.8456 18.152 22.2952 19.1261 22.4925C19.1721 22.5014 19.2195 22.4998 19.2649 22.4881C19.3103 22.4763 19.3525 22.4545 19.3884 22.4244C19.4243 22.3943 19.453 22.3565 19.4725 22.3139C19.492 22.2713 19.5018 22.2248 19.5011 22.178L19.5001 22.1784ZM22.3459 11.5739C22.1823 11.1806 21.835 10.8759 21.3662 10.7137L20.2501 10.2694V6.375C20.2501 5.57935 19.9341 4.81629 19.3715 4.25368C18.8088 3.69107 18.0458 3.375 17.2501 3.375H15.7501V3C15.7501 2.50272 15.5526 2.02581 15.201 1.67417C14.8493 1.32254 14.3724 1.125 13.8751 1.125H10.1251C9.62785 1.125 9.15094 1.32254 8.79931 1.67417C8.44768 2.02581 8.25013 2.50272 8.25013 3V3.375H6.75013C5.95449 3.375 5.19142 3.69107 4.62881 4.25368C4.06621 4.81629 3.75013 5.57935 3.75013 6.375V10.2727L2.64482 10.7128C2.17888 10.8675 1.81842 11.1816 1.65342 11.5772C1.53857 11.8533 1.40732 12.2803 1.59248 12.8175L1.59717 12.8316L3.78435 18.4303C3.86493 18.636 4.00592 18.8125 4.18874 18.9365C4.37157 19.0605 4.58766 19.1262 4.80857 19.125C4.83201 19.125 4.85545 19.125 4.88029 19.1227C6.34842 19.0289 7.50529 18.3131 8.28342 17.6409C9.39482 18.6005 10.7022 19.125 12.0001 19.125C13.2981 19.125 14.5984 18.6 15.7098 17.6391C16.4875 18.3122 17.6458 19.0298 19.1134 19.1227C19.3458 19.139 19.5773 19.0808 19.7743 18.9565C19.9713 18.8323 20.1235 18.6484 20.2089 18.4317L22.3956 12.8536C22.5494 12.4744 22.5315 12.0211 22.3459 11.5739ZM12.6095 7.22859L12.5561 7.20984C12.194 7.09593 11.8058 7.09593 11.4437 7.20984L11.4165 7.21828L5.50701 9.57281C5.47855 9.58415 5.44775 9.58834 5.4173 9.58501C5.38684 9.58169 5.35767 9.57096 5.33233 9.55375C5.30698 9.53655 5.28624 9.51339 5.27191 9.48632C5.25758 9.45924 5.25011 9.42907 5.25013 9.39844V6.375C5.25013 5.97718 5.40817 5.59564 5.68947 5.31434C5.97078 5.03304 6.35231 4.875 6.75013 4.875H17.2501C17.648 4.875 18.0295 5.03304 18.3108 5.31434C18.5921 5.59564 18.7501 5.97718 18.7501 6.375V9.39563C18.7502 9.42626 18.7427 9.45643 18.7284 9.48351C18.714 9.51058 18.6933 9.53373 18.6679 9.55094C18.6426 9.56814 18.6134 9.57888 18.583 9.5822C18.5525 9.58552 18.5217 9.58133 18.4933 9.57L12.6095 7.22859Z" fill="black"/>
</svg>
