<svg width="24" height="24" viewBox="0 0 24 24" fill="none" xmlns="http://www.w3.org/2000/svg">
<path d="M18.1875 21C17.3346 21 16.5008 20.7471 15.7916 20.2733C15.0824 19.7994 14.5297 19.1259 14.2033 18.3379C13.8769 17.5499 13.7915 16.6828 13.9579 15.8462C14.1243 15.0097 14.535 14.2413 15.1381 13.6381C15.7412 13.035 16.5096 12.6243 17.3462 12.4579C18.1827 12.2915 19.0498 12.3769 19.8378 12.7033C20.6258 13.0297 21.2994 13.5825 21.7732 14.2917C22.2471 15.0008 22.5 15.8346 22.5 16.6875C22.4988 17.8309 22.044 18.9271 21.2355 19.7356C20.427 20.5441 19.3309 20.9988 18.1875 21ZM18.1875 13.875C17.6312 13.875 17.0875 14.04 16.625 14.349C16.1624 14.6581 15.802 15.0973 15.5891 15.6112C15.3762 16.1252 15.3205 16.6907 15.429 17.2362C15.5376 17.7818 15.8054 18.283 16.1988 18.6763C16.5921 19.0696 17.0932 19.3375 17.6388 19.446C18.1844 19.5545 18.7499 19.4988 19.2638 19.286C19.7777 19.0731 20.217 18.7126 20.526 18.2501C20.8351 17.7876 21 17.2438 21 16.6875C20.9991 15.9419 20.7025 15.227 20.1753 14.6998C19.648 14.1725 18.9332 13.8759 18.1875 13.875ZM5.8125 21C4.95957 21 4.12579 20.7471 3.41661 20.2733C2.70742 19.7994 2.15467 19.1259 1.82827 18.3379C1.50187 17.5499 1.41647 16.6828 1.58287 15.8462C1.74926 15.0097 2.15999 14.2413 2.7631 13.6381C3.36622 13.035 4.13463 12.6243 4.97117 12.4579C5.80772 12.2915 6.67482 12.3769 7.46282 12.7033C8.25083 13.0297 8.92435 13.5825 9.39822 14.2917C9.87208 15.0008 10.125 15.8346 10.125 16.6875C10.1238 17.8309 9.66901 18.9271 8.86053 19.7356C8.05205 20.5441 6.95587 20.9988 5.8125 21ZM5.8125 13.875C5.25624 13.875 4.71247 14.04 4.24996 14.349C3.78745 14.6581 3.42696 15.0973 3.21409 15.6112C3.00122 16.1252 2.94552 16.6907 3.05404 17.2362C3.16256 17.7818 3.43043 18.283 3.82376 18.6763C4.2171 19.0696 4.71824 19.3375 5.26381 19.446C5.80938 19.5545 6.37488 19.4988 6.8888 19.286C7.40272 19.0731 7.84197 18.7126 8.15101 18.2501C8.46005 17.7876 8.625 17.2438 8.625 16.6875C8.62413 15.9419 8.32754 15.227 7.80028 14.6998C7.27302 14.1725 6.55816 13.8759 5.8125 13.875ZM15 6.00005C15.1976 6.00073 15.3933 5.96225 15.5759 5.88681C15.7585 5.81138 15.9244 5.7005 16.0639 5.56058C16.2033 5.42065 16.3137 5.25447 16.3886 5.07163C16.4634 4.88879 16.5013 4.69293 16.5 4.49536C16.5022 4.29878 16.4652 4.10374 16.3911 3.92164C16.317 3.73954 16.2074 3.57403 16.0686 3.4348C15.9298 3.29558 15.7646 3.18542 15.5828 3.11077C15.4009 3.03612 15.206 2.99848 15.0094 3.00005C14.8124 2.99943 14.6172 3.03762 14.435 3.11243C14.2528 3.18725 14.0871 3.29722 13.9473 3.43607C13.8076 3.57493 13.6966 3.73994 13.6207 3.92169C13.5447 4.10344 13.5053 4.29838 13.5047 4.49536C13.5041 4.69234 13.5423 4.88752 13.6171 5.06974C13.6919 5.25197 13.8019 5.41767 13.9407 5.55739C14.0796 5.69712 14.2446 5.80812 14.4263 5.88407C14.6081 5.96002 14.803 5.99943 15 6.00005Z" fill="black"/>
<path d="M17.2289 9.00003H15.1777C15.144 9.00004 15.111 8.99099 15.082 8.97384C15.0531 8.95668 15.0293 8.93205 15.0131 8.90253L13.5253 6.17581C13.4205 5.97318 13.2694 5.79807 13.0843 5.66467C12.8993 5.53127 12.6854 5.44333 12.46 5.40795C12.2346 5.37258 12.004 5.39077 11.787 5.46106C11.5699 5.53135 11.3725 5.65175 11.2106 5.81253L7.93594 9.11253C7.66083 9.39333 7.50467 9.76945 7.5 10.1625C7.5 10.9782 8.09062 11.2688 8.36719 11.4328C9.70312 12.2025 10.6439 12.7655 11.16 13.0782C11.1874 13.0949 11.2101 13.1183 11.2259 13.1463C11.2416 13.1743 11.2499 13.2059 11.25 13.238V16.478C11.25 16.8816 11.5603 17.228 11.9639 17.2482C12.0652 17.253 12.1665 17.2373 12.2616 17.2019C12.3567 17.1666 12.4436 17.1123 12.517 17.0423C12.5905 16.9724 12.6491 16.8883 12.6891 16.7951C12.7291 16.7018 12.7499 16.6015 12.75 16.5V12.4688C12.7501 12.3497 12.7218 12.2324 12.6675 12.1264C12.6132 12.0204 12.5345 11.9289 12.4378 11.8594L10.7034 10.6121C10.6817 10.5965 10.6635 10.5764 10.6501 10.5532C10.6367 10.53 10.6285 10.5043 10.6259 10.4776C10.6233 10.451 10.6265 10.4241 10.6352 10.3988C10.6439 10.3734 10.6579 10.3503 10.6762 10.3308L12.645 8.23128C12.6652 8.20968 12.6902 8.19316 12.718 8.18307C12.7458 8.17297 12.7755 8.1696 12.8049 8.17321C12.8342 8.17682 12.8623 8.18731 12.8868 8.20384C12.9113 8.22037 12.9316 8.24246 12.9459 8.26831L13.9688 10.1143C14.0338 10.2313 14.1289 10.3288 14.2443 10.3966C14.3597 10.4644 14.4911 10.5001 14.625 10.5H17.25C17.3516 10.5002 17.4522 10.4796 17.5456 10.4397C17.639 10.3998 17.7234 10.3413 17.7935 10.2678C17.8636 10.1942 17.9181 10.1072 17.9536 10.012C17.9891 9.91685 18.0049 9.81542 18 9.71394C17.9803 9.31034 17.6325 9.00003 17.2289 9.00003Z" fill="black"/>
</svg>
