<svg width="24" height="24" viewBox="0 0 24 24" fill="none" xmlns="http://www.w3.org/2000/svg">
<path d="M15.2501 5.2041C14.1126 5.20338 12.9938 5.49357 12.0001 6.0471C11.0064 5.49357 9.88759 5.20338 8.7501 5.2041C6.94769 5.2041 5.2191 5.92011 3.9446 7.19461C2.67011 8.4691 1.9541 10.1977 1.9541 12.0001C1.9541 13.8025 2.67011 15.5311 3.9446 16.8056C5.2191 18.0801 6.94769 18.7961 8.7501 18.7961C9.88759 18.7968 11.0064 18.5066 12.0001 17.9531C12.9938 18.5066 14.1126 18.7968 15.2501 18.7961C17.0525 18.7961 18.7811 18.0801 20.0556 16.8056C21.3301 15.5311 22.0461 13.8025 22.0461 12.0001C22.0461 10.1977 21.3301 8.4691 20.0556 7.19461C18.7811 5.92011 17.0525 5.2041 15.2501 5.2041ZM8.7501 17.7961C7.21291 17.7961 5.73867 17.1855 4.65171 16.0985C3.56475 15.0115 2.9541 13.5373 2.9541 12.0001C2.9541 10.4629 3.56475 8.98867 4.65171 7.90171C5.73867 6.81475 7.21291 6.2041 8.7501 6.2041C9.5421 6.2041 10.3251 6.3701 11.0481 6.6911C10.2529 7.32872 9.61113 8.13682 9.17012 9.05572C8.72912 9.97462 8.50016 10.9809 8.50016 12.0001C8.50016 13.0194 8.72912 14.0256 9.17012 14.9445C9.61113 15.8634 10.2529 16.6715 11.0481 17.3091C10.3244 17.6299 9.54168 17.7958 8.7501 17.7961ZM12.0001 16.7761C11.2282 16.2415 10.5975 15.5277 10.1621 14.6959C9.72666 13.8641 9.49951 12.939 9.5001 12.0001C9.49934 11.061 9.72642 10.1358 10.1619 9.30375C10.5973 8.47172 11.2281 7.75776 12.0001 7.2231C12.7718 7.75816 13.4023 8.4722 13.8378 9.30412C14.2733 10.136 14.5008 11.0611 14.5008 12.0001C14.5008 12.9391 14.2733 13.8642 13.8378 14.6961C13.4023 15.528 12.7718 16.242 12.0001 16.7771V16.7761ZM15.2501 17.7961C14.4585 17.7958 13.6758 17.6299 12.9521 17.3091C13.7473 16.6715 14.3891 15.8634 14.8301 14.9445C15.2711 14.0256 15.5 13.0194 15.5 12.0001C15.5 10.9809 15.2711 9.97462 14.8301 9.05572C14.3891 8.13682 13.7473 7.32872 12.9521 6.6911C13.6758 6.37031 14.4585 6.20442 15.2501 6.2041C16.7873 6.2041 18.2615 6.81475 19.3485 7.90171C20.4355 8.98867 21.0461 10.4629 21.0461 12.0001C21.0461 13.5373 20.4355 15.0115 19.3485 16.0985C18.2615 17.1855 16.7873 17.7961 15.2501 17.7961Z" fill="black"/>
</svg>
