<svg width="24" height="24" viewBox="0 0 24 24" fill="none" xmlns="http://www.w3.org/2000/svg">
<path d="M3 11.9999C3 11.9999 2.25 11.7187 2.25 10.4999C2.25 9.28119 3 8.99994 3 8.99994M21 11.5312C21 11.5312 21.75 11.3282 21.75 10.4999C21.75 9.67166 21 9.46869 21 9.46869M12 7.49994V13.4999M5.25 7.49994V13.4999M19.1222 2.44776C19.1222 2.44776 15.0609 7.49994 11.25 7.49994H3.75C3.55109 7.49994 3.36032 7.57896 3.21967 7.71961C3.07902 7.86026 3 8.05103 3 8.24994V12.7499C3 12.9489 3.07902 13.1396 3.21967 13.2803C3.36032 13.4209 3.55109 13.4999 3.75 13.4999H11.25C15.0609 13.4999 19.1222 18.5732 19.1222 18.5732C19.4063 18.9482 20.25 18.6913 20.25 18.1124V2.90619C20.25 2.32916 19.4531 2.02401 19.1222 2.44776Z" stroke="black" stroke-width="1.5" stroke-linecap="round" stroke-linejoin="round"/>
<path d="M6.75 13.5V21.375C6.75 21.4745 6.78951 21.5698 6.85983 21.6402C6.93016 21.7105 7.02554 21.75 7.125 21.75H9.60938C9.72686 21.75 9.84272 21.7225 9.9476 21.6695C10.0525 21.6166 10.1435 21.5397 10.2132 21.4452C10.2829 21.3506 10.3295 21.241 10.3491 21.1252C10.3687 21.0093 10.3608 20.8905 10.3261 20.7783C9.93328 19.5183 9 18.0975 9 15.75H9.75C9.94891 15.75 10.1397 15.671 10.2803 15.5303C10.421 15.3897 10.5 15.1989 10.5 15V14.25C10.5 14.0511 10.421 13.8603 10.2803 13.7197C10.1397 13.579 9.94891 13.5 9.75 13.5H9" stroke="black" stroke-width="1.5" stroke-linecap="round" stroke-linejoin="round"/>
</svg>
