<svg width="24" height="24" viewBox="0 0 24 24" fill="none" xmlns="http://www.w3.org/2000/svg">
<path d="M10.1287 9.00003V15.743C10.1365 16.2361 10.3378 16.7063 10.6893 17.0523C11.0407 17.3982 11.5141 17.5921 12.0072 17.5921C12.5004 17.5921 12.9737 17.3982 13.3252 17.0523C13.6766 16.7063 13.878 16.2361 13.8857 15.743L13.8918 6.90472C13.8969 6.48328 13.8184 6.06502 13.6606 5.67418C13.5029 5.28334 13.2691 4.9277 12.9729 4.62787C12.6767 4.32804 12.3239 4.09 11.935 3.92753C11.5461 3.76506 11.1289 3.6814 10.7074 3.6814C10.2859 3.6814 9.86863 3.76506 9.47974 3.92753C9.09084 4.09 8.73806 4.32804 8.44185 4.62787C8.14564 4.9277 7.91189 5.28334 7.75415 5.67418C7.59641 6.06502 7.51782 6.48328 7.52293 6.90472V15.8025C7.51434 16.3959 7.62379 16.985 7.8449 17.5356C8.06602 18.0863 8.39439 18.5875 8.81093 19.0101C9.22747 19.4327 9.72386 19.7683 10.2713 19.9973C10.8186 20.2264 11.4061 20.3443 11.9995 20.3443C12.5929 20.3443 13.1803 20.2264 13.7277 19.9973C14.2751 19.7683 14.7715 19.4327 15.1881 19.0101C15.6046 18.5875 15.933 18.0863 16.1541 17.5356C16.3752 16.985 16.4846 16.3959 16.4761 15.8025V7.48785" stroke="black" stroke-width="1.5" stroke-miterlimit="10" stroke-linecap="round"/>
</svg>
