<svg width="24" height="24" viewBox="0 0 24 24" fill="none" xmlns="http://www.w3.org/2000/svg">
<path d="M21.5622 2.43744L10.6403 13.3593M2.4897 9.37213L21.2397 2.27572C21.3073 2.24985 21.381 2.24412 21.4519 2.25922C21.5227 2.27432 21.5876 2.3096 21.6388 2.36081C21.69 2.41202 21.7253 2.47696 21.7404 2.54779C21.7555 2.61861 21.7498 2.6923 21.7239 2.75994L14.6275 21.5099C14.5993 21.5811 14.5499 21.642 14.4861 21.6843C14.4222 21.7266 14.347 21.7484 14.2704 21.7467C14.1938 21.7449 14.1196 21.7198 14.0578 21.6746C13.9959 21.6294 13.9494 21.5664 13.9244 21.494L10.765 13.7085C10.7282 13.5982 10.6662 13.498 10.5839 13.4157C10.5017 13.3335 10.4014 13.2715 10.2911 13.2346L2.50563 10.0781C2.43229 10.0537 2.36828 10.0072 2.32236 9.94501C2.27645 9.88283 2.25086 9.80798 2.24912 9.73071C2.24737 9.65343 2.26955 9.5775 2.31262 9.51332C2.35568 9.44913 2.41753 9.39982 2.4897 9.37213V9.37213Z" stroke="black" stroke-width="1.5" stroke-linecap="round" stroke-linejoin="round"/>
</svg>
