<svg width="24" height="24" viewBox="0 0 24 24" fill="none" xmlns="http://www.w3.org/2000/svg">
<path d="M15.9375 22.5H4.96875C3.58594 22.5 2.39438 22.133 1.52203 21.4388C0.526406 20.6456 0 19.4695 0 18.0375C0 16.6575 0.566719 15.4945 1.64062 14.6747C2.20781 14.2406 2.91563 13.9167 3.67172 13.7349C3.80842 13.701 3.93284 13.6294 4.03074 13.5282C4.12865 13.427 4.19607 13.3003 4.22531 13.1625C4.56047 11.6372 5.26828 10.327 6.30328 9.33048C7.53131 8.14924 9.17109 7.49269 10.875 7.50001C12.3905 7.50001 13.7883 7.99923 14.9175 8.94329C15.67 9.5776 16.2727 10.3706 16.6823 11.2655C16.7307 11.3713 16.803 11.4645 16.8934 11.5377C16.9838 11.6109 17.09 11.6621 17.2036 11.6874C18.3286 11.932 19.3327 12.427 20.092 13.1199C21.1767 14.1094 21.75 15.4603 21.75 17.025C21.75 18.5649 21.1345 19.972 20.0156 20.9869C18.9427 21.9628 17.4937 22.5 15.9375 22.5ZM23.9311 9.83392C23.9843 9.71525 24.0064 9.58499 23.9953 9.45541C23.9842 9.32584 23.9404 9.20122 23.8678 9.09329C23.769 8.95004 23.6234 8.8456 23.4561 8.79788C23.2887 8.75016 23.11 8.76213 22.9505 8.83173C22.4489 9.0497 21.803 9.16782 21.0792 9.17298C18.487 9.19173 16.327 7.06361 16.327 4.47095C16.327 3.73267 16.4433 3.0722 16.6636 2.56032C16.7182 2.43649 16.739 2.30036 16.7238 2.16586C16.7085 2.03136 16.6578 1.90333 16.5769 1.79486C16.4754 1.66128 16.332 1.56559 16.1697 1.52311C16.0074 1.48062 15.8355 1.49378 15.6816 1.56048C13.8708 2.34892 12.5794 3.97501 12.1533 5.89829C12.1479 5.92289 12.1475 5.94831 12.1522 5.97305C12.1568 5.99779 12.1664 6.02134 12.1804 6.0423C12.1943 6.06325 12.2124 6.08118 12.2334 6.09502C12.2544 6.10885 12.278 6.11831 12.3028 6.12282C13.621 6.35507 14.8547 6.93047 15.8798 7.79111C16.6298 8.42005 17.2594 9.17986 17.738 10.0336C17.8351 10.2063 17.9954 10.3347 18.1852 10.3917C19.305 10.7278 20.2992 11.2777 21.1031 12.0108C21.2419 12.138 21.3744 12.2695 21.5006 12.4055C21.5312 12.438 21.5723 12.4585 21.6166 12.4634C21.661 12.4683 21.7056 12.4572 21.7425 12.4322C22.7051 11.7928 23.4646 10.8912 23.9311 9.83392Z" fill="black"/>
</svg>
