<svg width="24" height="24" viewBox="0 0 24 24" fill="none" xmlns="http://www.w3.org/2000/svg">
<path d="M16.8103 6.06007L4.05422 18.8476L3.28125 20.7188L5.1525 19.9459L17.94 7.18976L16.8103 6.06007ZM19.3627 3.5082L18.81 4.06039L19.9397 5.19007L20.4923 4.63742C20.6374 4.4923 20.7188 4.29554 20.7188 4.09039C20.7188 3.88523 20.6374 3.68847 20.4923 3.54335L20.4572 3.5082C20.3853 3.43632 20.3 3.37931 20.2061 3.34041C20.1122 3.30152 20.0116 3.28149 19.9099 3.28149C19.8083 3.28149 19.7076 3.30152 19.6137 3.34041C19.5198 3.37931 19.4345 3.43632 19.3627 3.5082Z" stroke="black" stroke-width="2.0625" stroke-linecap="round" stroke-linejoin="round"/>
</svg>
