<svg width="24" height="24" viewBox="0 0 24 24" fill="none" xmlns="http://www.w3.org/2000/svg">
<path d="M17.9999 15.75C17.5959 15.7499 17.196 15.8316 16.8244 15.9903C16.4528 16.149 16.1173 16.3814 15.838 16.6734L8.90054 12.7702C9.03492 12.2655 9.03492 11.7345 8.90054 11.2299L15.838 7.32657C16.3432 7.85032 17.022 8.17192 17.7473 8.23111C18.4726 8.2903 19.1946 8.08302 19.778 7.6481C20.3614 7.21319 20.7662 6.58048 20.9166 5.8685C21.067 5.15653 20.9527 4.41415 20.595 3.78043C20.2373 3.14672 19.6609 2.66515 18.9736 2.42595C18.2864 2.18676 17.5355 2.20634 16.8616 2.48103C16.1878 2.75572 15.6372 3.26667 15.3131 3.91817C14.9889 4.56966 14.9134 5.317 15.1007 6.02016L8.1632 9.92344C7.7488 9.49137 7.2146 9.19316 6.62933 9.06718C6.04405 8.9412 5.43447 8.99321 4.879 9.21653C4.32353 9.43985 3.84758 9.82425 3.51237 10.3203C3.17717 10.8163 2.99805 11.4013 2.99805 12C2.99805 12.5987 3.17717 13.1837 3.51237 13.6797C3.84758 14.1758 4.32353 14.5602 4.879 14.7835C5.43447 15.0068 6.04405 15.0588 6.62933 14.9328C7.2146 14.8069 7.7488 14.5086 8.1632 14.0766L15.1007 17.9799C14.9398 18.5854 14.9726 19.2261 15.1945 19.8121C15.4163 20.3981 15.816 20.8999 16.3376 21.2472C16.8591 21.5944 17.4763 21.7696 18.1025 21.7483C18.7287 21.7269 19.3325 21.51 19.8291 21.128C20.3258 20.746 20.6904 20.2181 20.8717 19.6184C21.0531 19.0186 21.0421 18.3772 20.8404 17.784C20.6386 17.1908 20.2562 16.6757 19.7468 16.3109C19.2373 15.9461 18.6265 15.75 17.9999 15.75Z" fill="black"/>
</svg>
