<svg width="24" height="24" viewBox="0 0 24 24" fill="none" xmlns="http://www.w3.org/2000/svg">
<path d="M22.4561 5.22001C22.4455 5.05247 22.379 4.89333 22.2672 4.76806C22.1555 4.64279 22.0049 4.55864 21.8397 4.52907C17.785 3.80157 16.0923 3.27563 12.3086 1.56657C12.2115 1.52269 12.1062 1.5 11.9997 1.5C11.8931 1.5 11.7878 1.52269 11.6907 1.56657C7.907 3.27563 6.21434 3.80157 2.15965 4.52907C1.9944 4.55864 1.84385 4.64279 1.7321 4.76806C1.62034 4.89333 1.55384 5.05247 1.54325 5.22001C1.36278 8.08454 1.74762 10.7536 2.6884 13.1531C3.4588 15.1104 4.59894 16.901 6.04653 18.427C8.55294 21.0863 11.214 22.2413 11.7217 22.4456C11.9021 22.5186 12.1038 22.5186 12.2842 22.4456C12.7918 22.2413 15.4529 21.0863 17.9593 18.427C19.4046 16.9004 20.5425 15.1099 21.3109 13.1531C22.2517 10.7536 22.6365 8.08454 22.4561 5.22001ZM16.3154 8.74079L11.1217 14.7408C11.0549 14.8182 10.973 14.8811 10.881 14.9256C10.7891 14.9702 10.6889 14.9955 10.5868 15H10.5559C10.3596 15.0001 10.1711 14.9231 10.0309 14.7858L7.72465 12.5264C7.65429 12.4575 7.5982 12.3753 7.55958 12.2847C7.52096 12.1941 7.50057 12.0968 7.49957 11.9983C7.49755 11.7993 7.57463 11.6077 7.71387 11.4656C7.85311 11.3235 8.0431 11.2426 8.24203 11.2405C8.44097 11.2385 8.63256 11.3156 8.77465 11.4549L10.509 13.1559L15.1825 7.75923C15.2469 7.68474 15.3254 7.62368 15.4135 7.57953C15.5015 7.53538 15.5974 7.50901 15.6956 7.50191C15.7939 7.49481 15.8925 7.50714 15.986 7.53818C16.0795 7.56922 16.166 7.61837 16.2404 7.68282C16.3149 7.74727 16.376 7.82576 16.4201 7.91381C16.4643 8.00186 16.4907 8.09774 16.4978 8.19598C16.5048 8.29422 16.4925 8.3929 16.4615 8.48638C16.4304 8.57985 16.3813 8.6663 16.3168 8.74079H16.3154Z" fill="black"/>
</svg>
