<svg width="24" height="24" viewBox="0 0 24 24" fill="none" xmlns="http://www.w3.org/2000/svg">
<g clip-path="url(#clip0_48_4999)">
<path d="M12.1838 12.3239L10.1437 7.02047C10.1131 6.94088 10.0591 6.87244 9.98883 6.82417C9.91854 6.77589 9.83527 6.75005 9.75 6.75005C9.66473 6.75005 9.58146 6.77589 9.51117 6.82417C9.44088 6.87244 9.38686 6.94088 9.35625 7.02047L7.31625 12.3239C7.29506 12.379 7.26254 12.4291 7.2208 12.4708C7.17905 12.5125 7.12901 12.5451 7.07391 12.5662L1.77047 14.6063C1.69088 14.6369 1.62244 14.6909 1.57417 14.7612C1.52589 14.8315 1.50005 14.9147 1.50005 15C1.50005 15.0853 1.52589 15.1685 1.57417 15.2388C1.62244 15.3091 1.69088 15.3631 1.77047 15.3937L7.07391 17.4338C7.12901 17.4549 7.17905 17.4875 7.2208 17.5292C7.26254 17.5709 7.29506 17.621 7.31625 17.6761L9.35625 22.9795C9.38686 23.0591 9.44088 23.1276 9.51117 23.1758C9.58146 23.2241 9.66473 23.2499 9.75 23.2499C9.83527 23.2499 9.91854 23.2241 9.98883 23.1758C10.0591 23.1276 10.1131 23.0591 10.1437 22.9795L12.1838 17.6761C12.2049 17.621 12.2375 17.5709 12.2792 17.5292C12.3209 17.4875 12.371 17.4549 12.4261 17.4338L17.7295 15.3937C17.8091 15.3631 17.8776 15.3091 17.9258 15.2388C17.9741 15.1685 17.9999 15.0853 17.9999 15C17.9999 14.9147 17.9741 14.8315 17.9258 14.7612C17.8776 14.6909 17.8091 14.6369 17.7295 14.6063L12.4261 12.5662C12.371 12.5451 12.3209 12.5125 12.2792 12.4708C12.2375 12.4291 12.2049 12.379 12.1838 12.3239ZM5.0625 3.1875L4.125 0.75L3.1875 3.1875L0.75 4.125L3.1875 5.0625L4.125 7.5L5.0625 5.0625L7.5 4.125L5.0625 3.1875ZM20.0002 5.49984L18.75 2.25L17.4998 5.49984L14.25 6.75L17.4998 8.00016L18.75 11.25L20.0002 8.00016L23.25 6.75L20.0002 5.49984Z" stroke="black" stroke-width="1.5" stroke-linecap="round" stroke-linejoin="round"/>
</g>
<defs>
<clipPath id="clip0_48_4999">
<rect width="24" height="24" fill="white"/>
</clipPath>
</defs>
</svg>
