<svg width="24" height="24" viewBox="0 0 24 24" fill="none" xmlns="http://www.w3.org/2000/svg">
<g clip-path="url(#clip0_48_4998)">
<path d="M9.74991 24.0001C9.51289 24.0013 9.28114 23.9302 9.08564 23.7961C8.89014 23.6621 8.7402 23.4716 8.65585 23.2501L6.78835 18.3939C6.75053 18.296 6.69267 18.2071 6.61848 18.1329C6.5443 18.0588 6.45543 18.0009 6.35757 17.9631L1.49991 16.0942C1.27864 16.0093 1.08831 15.8592 0.954059 15.6639C0.819808 15.4686 0.747939 15.2371 0.747939 15.0001C0.747939 14.7631 0.819808 14.5317 0.954059 14.3363C1.08831 14.141 1.27864 13.991 1.49991 13.9061L6.35616 12.0386C6.45402 12.0007 6.54289 11.9429 6.61707 11.8687C6.69126 11.7945 6.74912 11.7056 6.78694 11.6078L8.65585 6.75011C8.74078 6.52884 8.8908 6.33851 9.08613 6.20426C9.28145 6.07001 9.5129 5.99814 9.74991 5.99814C9.98693 5.99814 10.2184 6.07001 10.4137 6.20426C10.609 6.33851 10.759 6.52884 10.844 6.75011L12.7115 11.6064C12.7493 11.7042 12.8072 11.7931 12.8813 11.8673C12.9555 11.9415 13.0444 11.9993 13.1423 12.0371L17.9704 13.8948C18.2007 13.9802 18.3991 14.1344 18.5385 14.3365C18.678 14.5387 18.7518 14.7789 18.7499 15.0245C18.7463 15.2574 18.6729 15.4838 18.5392 15.6745C18.4055 15.8652 18.2176 16.0114 17.9999 16.0942L13.1437 17.9617C13.0458 17.9995 12.9569 18.0574 12.8827 18.1315C12.8086 18.2057 12.7507 18.2946 12.7129 18.3925L10.844 23.2501C10.7596 23.4716 10.6097 23.6621 10.4142 23.7961C10.2187 23.9302 9.98693 24.0013 9.74991 24.0001ZM4.12491 8.25011C3.98595 8.25011 3.85026 8.208 3.7357 8.12934C3.62115 8.05069 3.53311 7.93917 3.48319 7.80949L2.69288 5.75449C2.67575 5.70955 2.64931 5.66873 2.6153 5.63472C2.5813 5.60071 2.54048 5.57428 2.49554 5.55715L0.440536 4.76683C0.31087 4.7169 0.199373 4.62886 0.120733 4.5143C0.0420927 4.39975 0 4.26406 0 4.12511C0 3.98617 0.0420927 3.85048 0.120733 3.73592C0.199373 3.62137 0.31087 3.53333 0.440536 3.4834L2.49554 2.69308C2.54044 2.67588 2.58121 2.64941 2.61521 2.61541C2.64921 2.58141 2.67567 2.54064 2.69288 2.49574L3.47616 0.459021C3.52034 0.339116 3.59635 0.233515 3.69603 0.153569C3.79572 0.0736225 3.91531 0.022353 4.04194 0.00527075C4.19398 -0.013212 4.34784 0.0195905 4.47912 0.0984766C4.6104 0.177363 4.71158 0.297817 4.76663 0.440739L5.55694 2.49574C5.57415 2.54064 5.60061 2.58141 5.63461 2.61541C5.66861 2.64941 5.70939 2.67588 5.75429 2.69308L7.80929 3.4834C7.93895 3.53333 8.05045 3.62137 8.12909 3.73592C8.20773 3.85048 8.24982 3.98617 8.24982 4.12511C8.24982 4.26406 8.20773 4.39975 8.12909 4.5143C8.05045 4.62886 7.93895 4.7169 7.80929 4.76683L5.75429 5.55715C5.70934 5.57428 5.66853 5.60071 5.63452 5.63472C5.60051 5.66873 5.57407 5.70955 5.55694 5.75449L4.76663 7.80949C4.71671 7.93917 4.62867 8.05069 4.51412 8.12934C4.39957 8.208 4.26387 8.25011 4.12491 8.25011ZM18.7499 12.0001C18.5983 12.0001 18.4503 11.9541 18.3254 11.8682C18.2004 11.7824 18.1045 11.6607 18.0501 11.5192L16.9794 8.73621C16.9606 8.68717 16.9317 8.64263 16.8945 8.60549C16.8574 8.56834 16.8129 8.53942 16.7638 8.52058L13.9808 7.44996C13.8395 7.39548 13.7179 7.29945 13.6321 7.17453C13.5464 7.0496 13.5005 6.90163 13.5005 6.75011C13.5005 6.59859 13.5464 6.45063 13.6321 6.3257C13.7179 6.20078 13.8395 6.10475 13.9808 6.05027L16.7638 4.97965C16.8129 4.96081 16.8574 4.93189 16.8945 4.89474C16.9317 4.85759 16.9606 4.81306 16.9794 4.76402L18.0421 2.00074C18.0906 1.87007 18.1736 1.75499 18.2823 1.66774C18.391 1.5805 18.5214 1.52435 18.6594 1.50527C18.8254 1.48519 18.9932 1.52109 19.1364 1.60729C19.2796 1.69348 19.3899 1.82503 19.4498 1.98105L20.5204 4.76402C20.5392 4.81306 20.5681 4.85759 20.6053 4.89474C20.6424 4.93189 20.687 4.96081 20.736 4.97965L23.519 6.05027C23.6604 6.10475 23.7819 6.20078 23.8677 6.3257C23.9534 6.45063 23.9993 6.59859 23.9993 6.75011C23.9993 6.90163 23.9534 7.0496 23.8677 7.17453C23.7819 7.29945 23.6604 7.39548 23.519 7.44996L20.736 8.52058C20.687 8.53942 20.6424 8.56834 20.6053 8.60549C20.5681 8.64263 20.5392 8.68717 20.5204 8.73621L19.4498 11.5192C19.3954 11.6607 19.2994 11.7824 19.1745 11.8682C19.0495 11.9541 18.9015 12.0001 18.7499 12.0001Z" fill="black"/>
</g>
<defs>
<clipPath id="clip0_48_4998">
<rect width="24" height="24" fill="white"/>
</clipPath>
</defs>
</svg>
