<svg width="24" height="24" viewBox="0 0 24 24" fill="none" xmlns="http://www.w3.org/2000/svg">
<path d="M19.4249 4.5754C18.4517 3.5925 17.2938 2.8116 16.0178 2.27754C14.7419 1.74349 13.3729 1.46682 11.9897 1.46341C10.6065 1.46001 9.23622 1.72994 7.95763 2.25771C6.67904 2.78547 5.51734 3.56067 4.53925 4.53876C3.56116 5.51685 2.78596 6.67856 2.25819 7.95714C1.73043 9.23573 1.46049 10.606 1.4639 11.9892C1.4673 13.3724 1.74398 14.7414 2.27803 16.0173C2.81209 17.2933 3.59299 18.4512 4.57588 19.4245C5.54915 20.4074 6.70703 21.1883 7.983 21.7223C9.25897 22.2564 10.6279 22.533 12.0111 22.5364C13.3943 22.5398 14.7646 22.2699 16.0432 21.7421C17.3218 21.2144 18.4835 20.4392 19.4616 19.4611C20.4397 18.483 21.2149 17.3213 21.7426 16.0427C22.2704 14.7641 22.5403 13.3939 22.5369 12.0106C22.5335 10.6274 22.2569 9.25849 21.7228 7.98251C21.1887 6.70654 20.4078 5.54866 19.4249 4.5754ZM9.00651 12.1959C8.96673 11.5871 9.11346 10.9807 9.42715 10.4575C9.74085 9.93435 10.2066 9.51922 10.7623 9.26751C11.3179 9.0158 11.9371 8.93947 12.5373 9.04871C13.1375 9.15794 13.6901 9.44754 14.1214 9.8789C14.5528 10.3103 14.8424 10.8629 14.9516 11.463C15.0609 12.0632 14.9845 12.6824 14.7328 13.2381C14.4811 13.7938 14.066 14.2595 13.5428 14.5732C13.0196 14.8869 12.4132 15.0336 11.8045 14.9938C11.0782 14.9457 10.3942 14.6354 9.87957 14.1208C9.36492 13.6061 9.05467 12.9221 9.00651 12.1959ZM20.2565 9.07211L15.7392 9.34586C15.7083 9.34749 15.6774 9.34155 15.6493 9.32857C15.6212 9.31558 15.5967 9.29593 15.5779 9.27133C15.3346 8.9525 15.0497 8.66764 14.7309 8.4243C14.7063 8.40551 14.6866 8.381 14.6737 8.35291C14.6607 8.32481 14.6547 8.29396 14.6564 8.26305L14.9301 3.74571C14.9318 3.71627 14.9404 3.68763 14.9552 3.66214C14.97 3.63664 14.9906 3.615 15.0154 3.59897C15.0401 3.58294 15.0683 3.57297 15.0976 3.56988C15.127 3.56679 15.1566 3.57066 15.1842 3.58118C16.3768 4.03546 17.4597 4.73693 18.362 5.63949C19.2642 6.54206 19.9653 7.62529 20.4192 8.81805C20.4297 8.8456 20.4336 8.87525 20.4305 8.90457C20.4274 8.9339 20.4174 8.96208 20.4014 8.98684C20.3853 9.01159 20.3637 9.03221 20.3382 9.04703C20.3127 9.06185 20.2841 9.07044 20.2546 9.07211H20.2565ZM9.0726 3.74571L9.34635 8.26305C9.34798 8.29396 9.34204 8.32481 9.32905 8.35291C9.31607 8.381 9.29642 8.40551 9.27182 8.4243C8.95299 8.66764 8.66812 8.9525 8.42479 9.27133C8.406 9.29593 8.38149 9.31558 8.35339 9.32857C8.3253 9.34155 8.29445 9.34749 8.26354 9.34586L3.7462 9.07211C3.71675 9.07044 3.68812 9.06185 3.66262 9.04703C3.63713 9.03221 3.61549 9.01159 3.59946 8.98684C3.58343 8.96208 3.57346 8.9339 3.57037 8.90457C3.56728 8.87525 3.57115 8.8456 3.58166 8.81805C4.03573 7.62511 4.73709 6.54176 5.63967 5.63918C6.54224 4.73661 7.6256 4.03524 8.81854 3.58118C8.84609 3.57066 8.87573 3.56679 8.90506 3.56988C8.93439 3.57297 8.96257 3.58294 8.98732 3.59897C9.01208 3.615 9.0327 3.63664 9.04752 3.66214C9.06233 3.68763 9.07093 3.71627 9.0726 3.74571ZM3.7462 14.9277L8.26354 14.654C8.29445 14.6524 8.3253 14.6583 8.35339 14.6713C8.38149 14.6843 8.406 14.7039 8.42479 14.7285C8.66812 15.0473 8.95299 15.3322 9.27182 15.5756C9.29642 15.5943 9.31607 15.6188 9.32905 15.6469C9.34204 15.675 9.34798 15.7059 9.34635 15.7368L9.0726 20.2541C9.07093 20.2836 9.06233 20.3122 9.04752 20.3377C9.0327 20.3632 9.01208 20.3849 8.98732 20.4009C8.96257 20.4169 8.93439 20.4269 8.90506 20.43C8.87573 20.4331 8.84609 20.4292 8.81854 20.4187C7.6256 19.9646 6.54224 19.2632 5.63967 18.3607C4.73709 17.4581 4.03573 16.3747 3.58166 15.1818C3.57115 15.1543 3.56728 15.1246 3.57037 15.0953C3.57346 15.066 3.58343 15.0378 3.59946 15.013C3.61549 14.9883 3.63713 14.9676 3.66262 14.9528C3.68812 14.938 3.71675 14.9294 3.7462 14.9277ZM14.9282 20.2541L14.6545 15.7368C14.6529 15.7059 14.6588 15.675 14.6718 15.6469C14.6848 15.6188 14.7044 15.5943 14.729 15.5756C15.0478 15.3322 15.3327 15.0473 15.576 14.7285C15.5948 14.7039 15.6193 14.6843 15.6474 14.6713C15.6755 14.6583 15.7064 14.6524 15.7373 14.654L20.2546 14.9277C20.2841 14.9294 20.3127 14.938 20.3382 14.9528C20.3637 14.9676 20.3853 14.9883 20.4014 15.013C20.4174 15.0378 20.4274 15.066 20.4305 15.0953C20.4336 15.1246 20.4297 15.1543 20.4192 15.1818C19.9651 16.3747 19.2637 17.4581 18.3612 18.3607C17.4586 19.2632 16.3752 19.9646 15.1823 20.4187C15.1547 20.4292 15.1251 20.4331 15.0958 20.43C15.0664 20.4269 15.0383 20.4169 15.0135 20.4009C14.9888 20.3849 14.9681 20.3632 14.9533 20.3377C14.9385 20.3122 14.9299 20.2836 14.9282 20.2541Z" fill="black"/>
</svg>
