<svg width="24" height="24" viewBox="0 0 24 24" fill="none" xmlns="http://www.w3.org/2000/svg">
<path d="M12 3C7.02966 3 3 7.02966 3 12C3 16.9703 7.02966 21 12 21C16.9703 21 21 16.9703 21 12C21 7.02966 16.9703 3 12 3ZM16.1538 13.3846H12C11.8164 13.3846 11.6403 13.3117 11.5105 13.1818C11.3806 13.052 11.3077 12.8759 11.3077 12.6923V6.46154C11.3077 6.27793 11.3806 6.10184 11.5105 5.972C11.6403 5.84217 11.8164 5.76923 12 5.76923C12.1836 5.76923 12.3597 5.84217 12.4895 5.972C12.6194 6.10184 12.6923 6.27793 12.6923 6.46154V12H16.1538C16.3375 12 16.5135 12.0729 16.6434 12.2028C16.7732 12.3326 16.8462 12.5087 16.8462 12.6923C16.8462 12.8759 16.7732 13.052 16.6434 13.1818C16.5135 13.3117 16.3375 13.3846 16.1538 13.3846Z" fill="black"/>
</svg>
