<svg width="24" height="24" viewBox="0 0 24 24" fill="none" xmlns="http://www.w3.org/2000/svg">
<path d="M22.2028 9.84383C21.5466 9.35727 20.7403 9.00008 19.8891 8.80742C19.7493 8.77598 19.6214 8.70542 19.5202 8.604C19.419 8.50257 19.3488 8.37446 19.3177 8.23461C18.952 6.6057 18.165 5.20883 17.0081 4.15039C15.6633 2.91805 13.8848 2.24023 12 2.24023C10.343 2.24023 8.8125 2.75961 7.57641 3.74258C6.73867 4.40982 6.06434 5.25954 5.60484 6.22695C5.55503 6.3328 5.48114 6.42553 5.38908 6.49773C5.29703 6.56992 5.18936 6.61958 5.07469 6.64274C3.82078 6.89586 2.68875 7.43352 1.82437 8.19523C0.630937 9.24992 0 10.652 0 12.2527C0 13.8709 0.679219 15.3465 1.91203 16.4134C3.08953 17.4301 4.67484 17.9902 6.375 17.9902H11.25V10.801L9.53016 12.5209C9.45835 12.5927 9.37272 12.6491 9.27845 12.6868C9.18418 12.7246 9.08323 12.7427 8.98172 12.7403C8.88021 12.7378 8.78026 12.7148 8.68792 12.6726C8.59558 12.6303 8.51278 12.5698 8.44453 12.4946C8.17266 12.196 8.19891 11.7305 8.48438 11.4451L11.4698 8.46008C11.6105 8.31953 11.8012 8.24058 12 8.24058C12.1988 8.24058 12.3895 8.31953 12.5302 8.46008L15.5156 11.4441C15.81 11.739 15.8269 12.2223 15.5339 12.518C15.4644 12.5882 15.3817 12.644 15.2906 12.6822C15.1995 12.7203 15.1017 12.7401 15.0029 12.7404C14.9041 12.7406 14.8063 12.7214 14.715 12.6837C14.6236 12.646 14.5407 12.5907 14.4708 12.5209L12.75 10.801V17.9902H18.5625C20.0316 17.9902 21.3708 17.5777 22.3336 16.8291C23.4239 15.9807 24 14.7666 24 13.3215C24 11.918 23.3784 10.7148 22.2028 9.84383ZM11.25 21.0099C11.25 21.2088 11.329 21.3996 11.4697 21.5403C11.6103 21.6809 11.8011 21.7599 12 21.7599C12.1989 21.7599 12.3897 21.6809 12.5303 21.5403C12.671 21.3996 12.75 21.2088 12.75 21.0099V17.9902H11.25V21.0099Z" fill="black"/>
</svg>
