<svg width="24" height="24" viewBox="0 0 24 24" fill="none" xmlns="http://www.w3.org/2000/svg">
<path d="M16.539 9.18591C16.0742 9.01652 15.5828 8.93152 15.088 8.93491C13.488 8.93491 12.358 9.74091 12.35 10.8979C12.34 11.7479 13.153 12.2269 13.768 12.5109C14.399 12.8029 14.61 12.9869 14.608 13.2479C14.604 13.6449 14.104 13.8249 13.639 13.8249C13 13.8249 12.651 13.7359 12.114 13.5129L11.915 13.4199L11.688 14.7519C12.077 14.9139 12.778 15.0529 13.502 15.0649C15.203 15.0649 16.315 14.2639 16.328 13.0329C16.342 12.3539 15.902 11.8409 14.976 11.4169C14.413 11.1419 14.064 10.9579 14.064 10.6789C14.064 10.4319 14.363 10.1679 14.988 10.1679C15.404 10.1578 15.8174 10.2359 16.201 10.3969L16.351 10.4639L16.578 9.17691L16.539 9.18591ZM20.691 9.04291H19.441C19.052 9.04291 18.759 9.14991 18.589 9.53591L16.185 14.9819H17.886L18.226 14.0889L20.302 14.0909C20.351 14.2999 20.501 14.9819 20.501 14.9819H22.001L20.691 9.04291ZM10.049 8.99291H11.67L10.656 14.9349H9.03705L10.049 8.99091V8.99291ZM5.93405 12.2679L6.10205 13.0929L7.68605 9.04291H9.40305L6.85205 14.9739H5.13905L3.73905 9.95191C3.71637 9.8691 3.66312 9.79798 3.59005 9.75291C3.08545 9.49225 2.55079 9.29444 1.99805 9.16391L2.02005 9.03891H4.62905C4.98305 9.05291 5.26805 9.16391 5.36305 9.54191L5.93305 12.2709V12.2679H5.93405ZM18.691 12.8739L19.337 11.2119C19.329 11.2299 19.47 10.8689 19.552 10.6459L19.663 11.1589L20.038 12.8729H18.69V12.8739H18.691Z" fill="black"/>
</svg>
