<svg width="24" height="24" viewBox="0 0 24 24" fill="none" xmlns="http://www.w3.org/2000/svg">
<path d="M16.2495 14.2641C15.0826 13.2268 13.5755 12.6538 12.0141 12.6538C10.4528 12.6538 8.94569 13.2268 7.77873 14.2641C7.68013 14.3495 7.59945 14.4535 7.5414 14.5703C7.48335 14.6871 7.44908 14.8142 7.44057 14.9443C7.43207 15.0744 7.4495 15.2049 7.49186 15.3283C7.53421 15.4516 7.60065 15.5653 7.68731 15.6627C7.77398 15.7602 7.87913 15.8394 7.99668 15.8959C8.11422 15.9523 8.24181 15.9849 8.37204 15.9916C8.50226 15.9983 8.63252 15.9791 8.75526 15.9351C8.878 15.891 8.99077 15.8231 9.08701 15.7351C9.89355 15.0183 10.9351 14.6223 12.0141 14.6223C13.0932 14.6223 14.1347 15.0183 14.9412 15.7351C15.1364 15.9086 15.3925 15.9974 15.6532 15.9821C15.9139 15.9667 16.1578 15.8485 16.3313 15.6533C16.5048 15.4581 16.5936 15.202 16.5783 14.9413C16.563 14.6806 16.4447 14.4367 16.2495 14.2632V14.2641Z" fill="black"/>
<path d="M12.0135 8.61085C9.37059 8.60721 6.82577 9.61172 4.89789 11.4196C4.80029 11.507 4.72112 11.6131 4.66503 11.7315C4.60894 11.8499 4.57707 11.9784 4.57127 12.1093C4.56548 12.2402 4.58589 12.371 4.63129 12.4939C4.6767 12.6168 4.74619 12.7295 4.83569 12.8252C4.9252 12.9209 5.03291 12.9978 5.15252 13.0513C5.27213 13.1048 5.40123 13.134 5.53224 13.1369C5.66324 13.1399 5.79353 13.1167 5.91546 13.0687C6.03738 13.0207 6.14849 12.9488 6.24227 12.8573C7.80765 11.3938 9.87057 10.5796 12.0135 10.5796C14.1565 10.5796 16.2194 11.3938 17.7848 12.8573C17.8785 12.9488 17.9897 13.0207 18.1116 13.0687C18.2335 13.1167 18.3638 13.1399 18.4948 13.1369C18.6258 13.134 18.7549 13.1048 18.8745 13.0513C18.9941 12.9978 19.1018 12.9209 19.1913 12.8252C19.2808 12.7295 19.3503 12.6168 19.3957 12.4939C19.4412 12.371 19.4616 12.2402 19.4558 12.1093C19.45 11.9784 19.4181 11.8499 19.362 11.7315C19.3059 11.6131 19.2268 11.507 19.1291 11.4196C17.2013 9.61172 14.6565 8.60721 12.0135 8.61085Z" fill="black"/>
<path d="M21.6567 8.24353C19.0027 5.87558 15.5703 4.56689 12.0135 4.56689C8.45677 4.56689 5.02435 5.87558 2.37041 8.24353C2.27067 8.32873 2.18896 8.43301 2.13009 8.55023C2.07122 8.66746 2.03637 8.79527 2.0276 8.92615C2.01882 9.05704 2.03629 9.18836 2.07899 9.31239C2.12168 9.43643 2.18874 9.55068 2.27621 9.64843C2.36369 9.74619 2.46982 9.82547 2.58837 9.88163C2.70692 9.93778 2.8355 9.96968 2.96655 9.97543C3.0976 9.98119 3.22848 9.9607 3.3515 9.91516C3.47452 9.86962 3.5872 9.79995 3.68291 9.71025C5.97586 7.66527 8.94091 6.53515 12.0133 6.53515C15.0857 6.53515 18.0507 7.66527 20.3437 9.71025C20.5383 9.8843 20.7941 9.9739 21.0548 9.95935C21.3155 9.9448 21.5597 9.82729 21.7338 9.63267C21.9078 9.43805 21.9974 9.18225 21.9829 8.92156C21.9683 8.66087 21.8508 8.41664 21.6562 8.24259L21.6567 8.24353Z" fill="black"/>
<path d="M12.0127 19.9412C12.8411 19.9412 13.5127 19.2696 13.5127 18.4412C13.5127 17.6127 12.8411 16.9412 12.0127 16.9412C11.1843 16.9412 10.5127 17.6127 10.5127 18.4412C10.5127 19.2696 11.1843 19.9412 12.0127 19.9412Z" fill="black"/>
</svg>
